Agency_FB-Condensed_Bold.ufo
<glyph name="exclam" format="2">
  <advance width="172"/>
  <unicode hex="0021"/>
  <outline>
    <contour>
      <point x="140" y="764" type="line"/>
      <point x="128" y="160" type="line"/>
      <point x="45" y="160" type="line"/>
      <point x="32" y="764" type="line"/>
    </contour>
    <contour>
      <point x="136" y="0" type="line"/>
      <point x="36" y="0" type="line"/>
      <point x="36" y="108" type="line"/>
      <point x="136" y="108" type="line"/>
    </contour>
  </outline>
</glyph>
<glyph name="quotedbl" format="2">
  <advance width="299"/>
  <unicode hex="0022"/>
  <outline>
    <contour>
      <point x="271" y="764" type="line"/>
      <point x="249" y="526" type="line"/>
      <point x="188" y="526" type="line"/>
      <point x="167" y="764" type="line"/>
    </contour>
    <contour>
      <point x="132" y="764" type="line"/>
      <point x="111" y="526" type="line"/>
      <point x="50" y="526" type="line"/>
      <point x="28" y="764" type="line"/>
    </contour>
  </outline>
</glyph>
<glyph name="numbersign" format="2">
  <advance width="453"/>
  <unicode hex="0023"/>
  <outline>
    <contour>
      <point x="439" y="483" type="line"/>
      <point x="360" y="483" type="line"/>
      <point x="330" y="279" type="line"/>
      <point x="401" y="279" type="line"/>
      <point x="401" y="196" type="line"/>
      <point x="318" y="196" type="line"/>
      <point x="288" y="0" type="line"/>
      <point x="197" y="0" type="line"/>
      <point x="226" y="196" type="line"/>
      <point x="172" y="196" type="line"/>
      <point x="143" y="0" type="line"/>
      <point x="51" y="0" type="line"/>
      <point x="81" y="196" type="line"/>
      <point x="15" y="196" type="line"/>
      <point x="15" y="279" type="line"/>
      <point x="93" y="279" type="line"/>
      <point x="124" y="483" type="line"/>
      <point x="53" y="483" type="line"/>
      <point x="53" y="566" type="line"/>
      <point x="136" y="566" type="line"/>
      <point x="166" y="764" type="line"/>
      <point x="257" y="764" type="line"/>
      <point x="227" y="566" type="line"/>
      <point x="282" y="566" type="line"/>
      <point x="311" y="764" type="line"/>
      <point x="403" y="764" type="line"/>
      <point x="372" y="566" type="line"/>
      <point x="439" y="566" type="line"/>
    </contour>
    <contour>
      <point x="269" y="483" type="line"/>
      <point x="215" y="483" type="line"/>
      <point x="184" y="279" type="line"/>
      <point x="239" y="279" type="line"/>
    </contour>
  </outline>
</glyph>
<glyph name="dollar" format="2">
  <advance width="341"/>
  <unicode hex="0024"/>
  <outline>
    <contour>
      <point x="312" y="73" type="line" smooth="yes"/>
      <point x="312" y="28"/>
      <point x="290" y="7"/>
      <point x="252" y="7" type="curve" smooth="yes"/>
      <point x="216" y="7" type="line"/>
      <point x="216" y="-58" type="line"/>
      <point x="124" y="-58" type="line"/>
      <point x="124" y="7" type="line"/>
      <point x="89" y="7" type="line" smooth="yes"/>
      <point x="50" y="7"/>
      <point x="29" y="28"/>
      <point x="29" y="73" type="curve" smooth="yes"/>
      <point x="29" y="253" type="line"/>
      <point x="126" y="253" type="line"/>
      <point x="126" y="92" type="line"/>
      <point x="214" y="92" type="line"/>
      <point x="214" y="246" type="line"/>
      <point x="48" y="472" type="line" smooth="yes"/>
      <point x="34" y="492"/>
      <point x="29" y="503"/>
      <point x="29" y="531" type="curve" smooth="yes"/>
      <point x="29" y="691" type="line" smooth="yes"/>
      <point x="29" y="736"/>
      <point x="50" y="757"/>
      <point x="89" y="757" type="curve" smooth="yes"/>
      <point x="124" y="757" type="line"/>
      <point x="124" y="822" type="line"/>
      <point x="216" y="822" type="line"/>
      <point x="216" y="757" type="line"/>
      <point x="252" y="757" type="line" smooth="yes"/>
      <point x="291" y="757"/>
      <point x="312" y="736"/>
      <point x="312" y="692" type="curve" smooth="yes"/>
      <point x="312" y="521" type="line"/>
      <point x="214" y="521" type="line"/>
      <point x="214" y="670" type="line"/>
      <point x="126" y="670" type="line"/>
      <point x="126" y="528" type="line"/>
      <point x="292" y="302" type="line" smooth="yes"/>
      <point x="308" y="281"/>
      <point x="312" y="271"/>
      <point x="312" y="243" type="curve" smooth="yes"/>
    </contour>
  </outline>
</glyph>
<glyph name="ampersand" format="2">
  <advance width="366"/>
  <unicode hex="0026"/>
  <outline>
    <contour>
      <point x="353" y="355" type="line"/>
      <point x="309" y="355" type="line"/>
      <point x="309" y="0" type="line"/>
      <point x="94" y="0" type="line" smooth="yes"/>
      <point x="50" y="0"/>
      <point x="30" y="20"/>
      <point x="30" y="65" type="curve" smooth="yes"/>
      <point x="30" y="311" type="line" smooth="yes"/>
      <point x="30" y="341"/>
      <point x="32" y="349"/>
      <point x="56" y="368" type="curve" smooth="yes"/>
      <point x="96" y="401" type="line"/>
      <point x="56" y="433" type="line" smooth="yes"/>
      <point x="36" y="449"/>
      <point x="32" y="457"/>
      <point x="32" y="488" type="curve" smooth="yes"/>
      <point x="32" y="699" type="line" smooth="yes"/>
      <point x="32" y="744"/>
      <point x="52" y="764"/>
      <point x="97" y="764" type="curve" smooth="yes"/>
      <point x="248" y="764" type="line" smooth="yes"/>
      <point x="292" y="764"/>
      <point x="312" y="744"/>
      <point x="312" y="699" type="curve" smooth="yes"/>
      <point x="312" y="527" type="line"/>
      <point x="217" y="527" type="line"/>
      <point x="217" y="677" type="line"/>
      <point x="128" y="677" type="line"/>
      <point x="128" y="476" type="line"/>
      <point x="167" y="445" type="line"/>
      <point x="353" y="445" type="line"/>
    </contour>
    <contour>
      <point x="215" y="87" type="line"/>
      <point x="215" y="355" type="line"/>
      <point x="163" y="355" type="line"/>
      <point x="125" y="324" type="line"/>
      <point x="125" y="87" type="line"/>
    </contour>
  </outline>
</glyph>
<glyph name="quotesingle" format="2">
  <advance width="160"/>
  <unicode hex="0027"/>
  <outline>
    <contour>
      <point x="132" y="764" type="line"/>
      <point x="111" y="526" type="line"/>
      <point x="50" y="526" type="line"/>
      <point x="28" y="764" type="line"/>
    </contour>
  </outline>
</glyph>
<glyph name="parenleft" format="2">
  <advance width="236"/>
  <unicode hex="0028"/>
  <outline>
    <contour>
      <point x="224" y="-98" type="line"/>
      <point x="124" y="-98" type="line"/>
      <point x="65" y="17"/>
      <point x="24" y="149"/>
      <point x="24" y="333" type="curve" smooth="yes"/>
      <point x="24" y="517"/>
      <point x="65" y="649"/>
      <point x="124" y="764" type="curve"/>
      <point x="224" y="764" type="line"/>
      <point x="224" y="759" type="line"/>
      <point x="165" y="636"/>
      <point x="132" y="508"/>
      <point x="132" y="333" type="curve" smooth="yes"/>
      <point x="132" y="158"/>
      <point x="165" y="30"/>
      <point x="224" y="-93" type="curve"/>
    </contour>
  </outline>
</glyph>
<glyph name="parenright" format="2">
  <advance width="236"/>
  <unicode hex="0029"/>
  <outline>
    <contour>
      <point x="212" y="333" type="curve" smooth="yes"/>
      <point x="212" y="149"/>
      <point x="172" y="17"/>
      <point x="113" y="-98" type="curve"/>
      <point x="13" y="-98" type="line"/>
      <point x="13" y="-93" type="line"/>
      <point x="71" y="30"/>
      <point x="105" y="158"/>
      <point x="105" y="333" type="curve" smooth="yes"/>
      <point x="105" y="508"/>
      <point x="71" y="636"/>
      <point x="13" y="759" type="curve"/>
      <point x="13" y="764" type="line"/>
      <point x="113" y="764" type="line"/>
      <point x="172" y="649"/>
      <point x="212" y="517"/>
    </contour>
  </outline>
</glyph>
<glyph name="asterisk" format="2">
  <advance width="420"/>
  <unicode hex="002A"/>
  <outline>
    <contour>
      <point x="394" y="535" type="line"/>
      <point x="344" y="454" type="line"/>
      <point x="246" y="528" type="line"/>
      <point x="257" y="402" type="line"/>
      <point x="163" y="402" type="line"/>
      <point x="175" y="528" type="line"/>
      <point x="77" y="454" type="line"/>
      <point x="27" y="535" type="line"/>
      <point x="145" y="585" type="line"/>
      <point x="27" y="635" type="line"/>
      <point x="77" y="716" type="line"/>
      <point x="175" y="643" type="line"/>
      <point x="163" y="768" type="line"/>
      <point x="257" y="768" type="line"/>
      <point x="246" y="643" type="line"/>
      <point x="344" y="716" type="line"/>
      <point x="394" y="635" type="line"/>
      <point x="276" y="585" type="line"/>
    </contour>
  </outline>
</glyph>
<glyph name="plus" format="2">
  <advance width="399"/>
  <unicode hex="002B"/>
  <outline>
    <contour>
      <point x="374" y="288" type="line"/>
      <point x="246" y="288" type="line"/>
      <point x="246" y="159" type="line"/>
      <point x="153" y="159" type="line"/>
      <point x="153" y="288" type="line"/>
      <point x="25" y="288" type="line"/>
      <point x="25" y="373" type="line"/>
      <point x="153" y="373" type="line"/>
      <point x="153" y="502" type="line"/>
      <point x="246" y="502" type="line"/>
      <point x="246" y="373" type="line"/>
      <point x="374" y="373" type="line"/>
    </contour>
  </outline>
</glyph>
<glyph name="comma" format="2">
  <advance width="151"/>
  <unicode hex="002C"/>
  <outline>
    <contour>
      <point x="134" y="108" type="line"/>
      <point x="87" y="-82" type="line"/>
      <point x="21" y="-82" type="line"/>
      <point x="28" y="108" type="line"/>
    </contour>
  </outline>
</glyph>
<glyph name="hyphen" format="2">
  <advance width="254"/>
  <unicode hex="002D"/>
  <unicode hex="00AD"/>
  <unicode hex="2010"/>
  <unicode hex="2011"/>
  <outline>
    <contour>
      <point x="228" y="245" type="line"/>
      <point x="26" y="245" type="line"/>
      <point x="26" y="340" type="line"/>
      <point x="228" y="340" type="line"/>
    </contour>
  </outline>
</glyph>
<glyph name="period" format="2">
  <advance width="151"/>
  <unicode hex="002E"/>
  <outline>
    <contour>
      <point x="125" y="0" type="line"/>
      <point x="26" y="0" type="line"/>
      <point x="26" y="108" type="line"/>
      <point x="125" y="108" type="line"/>
    </contour>
  </outline>
</glyph>
<glyph name="zero" format="2">
  <advance width="344"/>
  <unicode hex="0030"/>
  <outline>
    <contour>
      <point x="314" y="65" type="line" smooth="yes"/>
      <point x="314" y="21"/>
      <point x="293" y="0"/>
      <point x="250" y="0" type="curve" smooth="yes"/>
      <point x="94" y="0" type="line" smooth="yes"/>
      <point x="51" y="0"/>
      <point x="31" y="21"/>
      <point x="31" y="65" type="curve" smooth="yes"/>
      <point x="31" y="699" type="line" smooth="yes"/>
      <point x="31" y="743"/>
      <point x="51" y="764"/>
      <point x="95" y="764" type="curve" smooth="yes"/>
      <point x="250" y="764" type="line" smooth="yes"/>
      <point x="293" y="764"/>
      <point x="314" y="743"/>
      <point x="314" y="699" type="curve" smooth="yes"/>
    </contour>
    <contour>
      <point x="218" y="88" type="line"/>
      <point x="218" y="676" type="line"/>
      <point x="126" y="676" type="line"/>
      <point x="126" y="88" type="line"/>
    </contour>
  </outline>
</glyph>
<glyph name="one" format="2">
  <advance width="185"/>
  <unicode hex="0031"/>
  <outline>
    <contour>
      <point x="152" y="0" type="line"/>
      <point x="56" y="0" type="line"/>
      <point x="56" y="586" type="line"/>
      <point x="17" y="586" type="line"/>
      <point x="17" y="604" type="line"/>
      <point x="66" y="764" type="line"/>
      <point x="152" y="764" type="line"/>
    </contour>
  </outline>
</glyph>
<glyph name="two" format="2">
  <advance width="329"/>
  <unicode hex="0032"/>
  <outline>
    <contour>
      <point x="304" y="554" type="line" smooth="yes"/>
      <point x="304" y="522"/>
      <point x="299" y="510"/>
      <point x="287" y="480" type="curve" smooth="yes"/>
      <point x="135" y="90" type="line"/>
      <point x="303" y="90" type="line"/>
      <point x="303" y="0" type="line"/>
      <point x="22" y="0" type="line"/>
      <point x="22" y="67" type="line"/>
      <point x="208" y="527" type="line"/>
      <point x="208" y="676" type="line"/>
      <point x="124" y="676" type="line"/>
      <point x="124" y="525" type="line"/>
      <point x="28" y="525" type="line"/>
      <point x="28" y="699" type="line" smooth="yes"/>
      <point x="28" y="743"/>
      <point x="49" y="764"/>
      <point x="93" y="764" type="curve" smooth="yes"/>
      <point x="240" y="764" type="line" smooth="yes"/>
      <point x="283" y="764"/>
      <point x="304" y="743"/>
      <point x="304" y="699" type="curve" smooth="yes"/>
    </contour>
  </outline>
</glyph>
<glyph name="three" format="2">
  <advance width="341"/>
  <unicode hex="0033"/>
  <outline>
    <contour>
      <point x="312" y="65" type="line" smooth="yes"/>
      <point x="312" y="21"/>
      <point x="292" y="0"/>
      <point x="248" y="0" type="curve" smooth="yes"/>
      <point x="94" y="0" type="line" smooth="yes"/>
      <point x="51" y="0"/>
      <point x="31" y="21"/>
      <point x="31" y="65" type="curve" smooth="yes"/>
      <point x="31" y="246" type="line"/>
      <point x="126" y="246" type="line"/>
      <point x="126" y="88" type="line"/>
      <point x="217" y="88" type="line"/>
      <point x="217" y="302" type="line"/>
      <point x="112" y="387" type="line"/>
      <point x="112" y="406" type="line"/>
      <point x="216" y="490" type="line"/>
      <point x="216" y="676" type="line"/>
      <point x="127" y="676" type="line"/>
      <point x="127" y="527" type="line"/>
      <point x="31" y="527" type="line"/>
      <point x="31" y="699" type="line" smooth="yes"/>
      <point x="31" y="743"/>
      <point x="52" y="764"/>
      <point x="95" y="764" type="curve" smooth="yes"/>
      <point x="247" y="764" type="line" smooth="yes"/>
      <point x="291" y="764"/>
      <point x="312" y="743"/>
      <point x="312" y="699" type="curve" smooth="yes"/>
      <point x="312" y="501" type="line" smooth="yes"/>
      <point x="312" y="467"/>
      <point x="305" y="454"/>
      <point x="280" y="435" type="curve" smooth="yes"/>
      <point x="230" y="397" type="line"/>
      <point x="281" y="358" type="line" smooth="yes"/>
      <point x="306" y="339"/>
      <point x="312" y="326"/>
      <point x="312" y="292" type="curve" smooth="yes"/>
    </contour>
  </outline>
</glyph>
<glyph name="four" format="2">
  <advance width="343"/>
  <unicode hex="0034"/>
  <outline>
    <contour>
      <point x="329" y="160" type="line"/>
      <point x="288" y="160" type="line"/>
      <point x="288" y="0" type="line"/>
      <point x="196" y="0" type="line"/>
      <point x="196" y="160" type="line"/>
      <point x="13" y="160" type="line"/>
      <point x="13" y="219" type="line"/>
      <point x="148" y="764" type="line"/>
      <point x="244" y="764" type="line"/>
      <point x="244" y="760" type="line"/>
      <point x="118" y="248" type="line"/>
      <point x="196" y="248" type="line"/>
      <point x="196" y="445" type="line"/>
      <point x="288" y="445" type="line"/>
      <point x="288" y="248" type="line"/>
      <point x="329" y="248" type="line"/>
    </contour>
  </outline>
</glyph>
<glyph name="five" format="2">
  <advance width="337"/>
  <unicode hex="0035"/>
  <outline>
    <contour>
      <point x="308" y="65" type="line" smooth="yes"/>
      <point x="308" y="21"/>
      <point x="288" y="0"/>
      <point x="244" y="0" type="curve" smooth="yes"/>
      <point x="94" y="0" type="line" smooth="yes"/>
      <point x="50" y="0"/>
      <point x="30" y="21"/>
      <point x="30" y="65" type="curve" smooth="yes"/>
      <point x="30" y="247" type="line"/>
      <point x="126" y="247" type="line"/>
      <point x="126" y="88" type="line"/>
      <point x="212" y="88" type="line"/>
      <point x="212" y="397" type="line"/>
      <point x="28" y="397" type="line"/>
      <point x="39" y="764" type="line"/>
      <point x="306" y="764" type="line"/>
      <point x="306" y="674" type="line"/>
      <point x="130" y="674" type="line"/>
      <point x="123" y="486" type="line"/>
      <point x="244" y="486" type="line" smooth="yes"/>
      <point x="288" y="486"/>
      <point x="308" y="465"/>
      <point x="308" y="421" type="curve" smooth="yes"/>
    </contour>
  </outline>
</glyph>
<glyph name="six" format="2">
  <advance width="341"/>
  <unicode hex="0036"/>
  <outline>
    <contour>
      <point x="311" y="65" type="line" smooth="yes"/>
      <point x="311" y="21"/>
      <point x="291" y="0"/>
      <point x="247" y="0" type="curve" smooth="yes"/>
      <point x="94" y="0" type="line" smooth="yes"/>
      <point x="50" y="0"/>
      <point x="30" y="21"/>
      <point x="30" y="65" type="curve" smooth="yes"/>
      <point x="30" y="699" type="line" smooth="yes"/>
      <point x="30" y="743"/>
      <point x="50" y="764"/>
      <point x="94" y="764" type="curve" smooth="yes"/>
      <point x="246" y="764" type="line" smooth="yes"/>
      <point x="289" y="764"/>
      <point x="310" y="743"/>
      <point x="310" y="699" type="curve" smooth="yes"/>
      <point x="310" y="528" type="line"/>
      <point x="215" y="528" type="line"/>
      <point x="215" y="676" type="line"/>
      <point x="126" y="676" type="line"/>
      <point x="126" y="431" type="line"/>
      <point x="246" y="431" type="line" smooth="yes"/>
      <point x="290" y="431"/>
      <point x="311" y="410"/>
      <point x="311" y="367" type="curve" smooth="yes"/>
    </contour>
    <contour>
      <point x="216" y="88" type="line"/>
      <point x="216" y="343" type="line"/>
      <point x="126" y="343" type="line"/>
      <point x="126" y="88" type="line"/>
    </contour>
  </outline>
</glyph>
<glyph name="seven" format="2">
  <advance width="326"/>
  <unicode hex="0037"/>
  <outline>
    <contour>
      <point x="307" y="691" type="line"/>
      <point x="180" y="0" type="line"/>
      <point x="83" y="0" type="line"/>
      <point x="207" y="676" type="line"/>
      <point x="114" y="676" type="line"/>
      <point x="114" y="565" type="line"/>
      <point x="22" y="565" type="line"/>
      <point x="22" y="764" type="line"/>
      <point x="307" y="764" type="line"/>
    </contour>
  </outline>
</glyph>
<glyph name="eight" format="2">
  <advance width="348"/>
  <unicode hex="0038"/>
  <outline>
    <contour>
      <point x="318" y="65" type="line" smooth="yes"/>
      <point x="318" y="21"/>
      <point x="297" y="0"/>
      <point x="253" y="0" type="curve" smooth="yes"/>
      <point x="93" y="0" type="line" smooth="yes"/>
      <point x="50" y="0"/>
      <point x="30" y="21"/>
      <point x="30" y="65" type="curve" smooth="yes"/>
      <point x="30" y="293" type="line" smooth="yes"/>
      <point x="30" y="327"/>
      <point x="35" y="341"/>
      <point x="57" y="359" type="curve" smooth="yes"/>
      <point x="103" y="396" type="line"/>
      <point x="57" y="434" type="line" smooth="yes"/>
      <point x="37" y="451"/>
      <point x="30" y="464"/>
      <point x="30" y="495" type="curve" smooth="yes"/>
      <point x="30" y="699" type="line" smooth="yes"/>
      <point x="30" y="743"/>
      <point x="50" y="764"/>
      <point x="95" y="764" type="curve" smooth="yes"/>
      <point x="252" y="764" type="line" smooth="yes"/>
      <point x="296" y="764"/>
      <point x="316" y="743"/>
      <point x="316" y="699" type="curve" smooth="yes"/>
      <point x="316" y="495" type="line" smooth="yes"/>
      <point x="316" y="463"/>
      <point x="309" y="451"/>
      <point x="289" y="434" type="curve" smooth="yes"/>
      <point x="243" y="396" type="line"/>
      <point x="290" y="359" type="line" smooth="yes"/>
      <point x="312" y="342"/>
      <point x="318" y="329"/>
      <point x="318" y="293" type="curve" smooth="yes"/>
    </contour>
    <contour>
      <point x="219" y="477" type="line"/>
      <point x="219" y="677" type="line"/>
      <point x="128" y="677" type="line"/>
      <point x="128" y="477" type="line"/>
      <point x="174" y="442" type="line"/>
    </contour>
    <contour>
      <point x="220" y="87" type="line"/>
      <point x="220" y="316" type="line"/>
      <point x="174" y="351" type="line"/>
      <point x="127" y="316" type="line"/>
      <point x="127" y="87" type="line"/>
    </contour>
  </outline>
</glyph>
<glyph name="nine" format="2">
  <advance width="341"/>
  <unicode hex="0039"/>
  <outline>
    <contour>
      <point x="311" y="65" type="line" smooth="yes"/>
      <point x="311" y="21"/>
      <point x="290" y="0"/>
      <point x="246" y="0" type="curve" smooth="yes"/>
      <point x="95" y="0" type="line" smooth="yes"/>
      <point x="51" y="0"/>
      <point x="31" y="21"/>
      <point x="31" y="65" type="curve" smooth="yes"/>
      <point x="31" y="240" type="line"/>
      <point x="126" y="240" type="line"/>
      <point x="126" y="88" type="line"/>
      <point x="215" y="88" type="line"/>
      <point x="215" y="333" type="line"/>
      <point x="93" y="333" type="line" smooth="yes"/>
      <point x="50" y="333"/>
      <point x="29" y="354"/>
      <point x="29" y="397" type="curve" smooth="yes"/>
      <point x="29" y="699" type="line" smooth="yes"/>
      <point x="29" y="743"/>
      <point x="49" y="764"/>
      <point x="93" y="764" type="curve" smooth="yes"/>
      <point x="246" y="764" type="line" smooth="yes"/>
      <point x="290" y="764"/>
      <point x="311" y="743"/>
      <point x="311" y="699" type="curve" smooth="yes"/>
    </contour>
    <contour>
      <point x="215" y="421" type="line"/>
      <point x="215" y="676" type="line"/>
      <point x="125" y="676" type="line"/>
      <point x="125" y="421" type="line"/>
    </contour>
  </outline>
</glyph>
<glyph name="colon" format="2">
  <advance width="151"/>
  <unicode hex="003A"/>
  <outline>
    <contour>
      <point x="125" y="320" type="line"/>
      <point x="26" y="320" type="line"/>
      <point x="26" y="428" type="line"/>
      <point x="125" y="428" type="line"/>
    </contour>
    <contour>
      <point x="125" y="0" type="line"/>
      <point x="26" y="0" type="line"/>
      <point x="26" y="108" type="line"/>
      <point x="125" y="108" type="line"/>
    </contour>
  </outline>
</glyph>
<glyph name="semicolon" format="2">
  <advance width="151"/>
  <unicode hex="003B"/>
  <outline>
    <contour>
      <point x="126" y="320" type="line"/>
      <point x="27" y="320" type="line"/>
      <point x="27" y="428" type="line"/>
      <point x="126" y="428" type="line"/>
    </contour>
    <contour>
      <point x="132" y="108" type="line"/>
      <point x="85" y="-82" type="line"/>
      <point x="19" y="-82" type="line"/>
      <point x="26" y="108" type="line"/>
    </contour>
  </outline>
</glyph>
<glyph name="less" format="2">
  <advance width="314"/>
  <unicode hex="003C"/>
  <outline>
    <contour>
      <point x="286" y="112" type="line"/>
      <point x="279" y="112" type="line"/>
      <point x="23" y="299" type="line"/>
      <point x="23" y="362" type="line"/>
      <point x="279" y="549" type="line"/>
      <point x="285" y="549" type="line"/>
      <point x="285" y="440" type="line"/>
      <point x="127" y="330" type="line"/>
      <point x="286" y="221" type="line"/>
    </contour>
  </outline>
</glyph>
<glyph name="equal" format="2">
  <advance width="396"/>
  <unicode hex="003D"/>
  <outline>
    <contour>
      <point x="369" y="375" type="line"/>
      <point x="27" y="375" type="line"/>
      <point x="27" y="463" type="line"/>
      <point x="369" y="463" type="line"/>
    </contour>
    <contour>
      <point x="369" y="198" type="line"/>
      <point x="27" y="198" type="line"/>
      <point x="27" y="286" type="line"/>
      <point x="369" y="286" type="line"/>
    </contour>
  </outline>
</glyph>
<glyph name="greater" format="2">
  <advance width="314"/>
  <unicode hex="003E"/>
  <outline>
    <contour>
      <point x="291" y="299" type="line"/>
      <point x="36" y="112" type="line"/>
      <point x="28" y="112" type="line"/>
      <point x="28" y="221" type="line"/>
      <point x="188" y="330" type="line"/>
      <point x="29" y="440" type="line"/>
      <point x="29" y="549" type="line"/>
      <point x="36" y="549" type="line"/>
      <point x="291" y="362" type="line"/>
    </contour>
  </outline>
</glyph>
<glyph name="question" format="2">
  <advance width="327"/>
  <unicode hex="003F"/>
  <outline>
    <contour>
      <point x="303" y="537" type="line" smooth="yes"/>
      <point x="303" y="507"/>
      <point x="300" y="498"/>
      <point x="287" y="474" type="curve" smooth="yes"/>
      <point x="204" y="318" type="line"/>
      <point x="204" y="160" type="line"/>
      <point x="108" y="160" type="line"/>
      <point x="108" y="298" type="line" smooth="yes"/>
      <point x="108" y="329"/>
      <point x="110" y="339"/>
      <point x="123" y="363" type="curve" smooth="yes"/>
      <point x="206" y="519" type="line"/>
      <point x="206" y="677" type="line"/>
      <point x="122" y="677" type="line"/>
      <point x="122" y="529" type="line"/>
      <point x="26" y="529" type="line"/>
      <point x="26" y="699" type="line" smooth="yes"/>
      <point x="26" y="743"/>
      <point x="46" y="764"/>
      <point x="90" y="764" type="curve" smooth="yes"/>
      <point x="238" y="764" type="line" smooth="yes"/>
      <point x="282" y="764"/>
      <point x="303" y="743"/>
      <point x="303" y="699" type="curve" smooth="yes"/>
    </contour>
    <contour>
      <point x="207" y="0" type="line"/>
      <point x="106" y="0" type="line"/>
      <point x="106" y="108" type="line"/>
      <point x="207" y="108" type="line"/>
    </contour>
  </outline>
</glyph>
<glyph name="at" format="2">
  <advance width="482"/>
  <unicode hex="0040"/>
  <outline>
    <contour>
      <point x="453" y="0" type="line"/>
      <point x="75" y="0" type="line" smooth="yes"/>
      <point x="45" y="0"/>
      <point x="30" y="15"/>
      <point x="30" y="44" type="curve" smooth="yes"/>
      <point x="30" y="720" type="line" smooth="yes"/>
      <point x="30" y="749"/>
      <point x="45" y="764"/>
      <point x="75" y="764" type="curve" smooth="yes"/>
      <point x="407" y="764" type="line" smooth="yes"/>
      <point x="437" y="764"/>
      <point x="452" y="749"/>
      <point x="452" y="720" type="curve" smooth="yes"/>
      <point x="452" y="211" type="line" smooth="yes"/>
      <point x="452" y="183"/>
      <point x="437" y="167"/>
      <point x="407" y="167" type="curve" smooth="yes"/>
      <point x="187" y="167" type="line" smooth="yes"/>
      <point x="159" y="167"/>
      <point x="145" y="181"/>
      <point x="145" y="208" type="curve" smooth="yes"/>
      <point x="145" y="385" type="line" smooth="yes"/>
      <point x="145" y="412"/>
      <point x="159" y="426"/>
      <point x="187" y="426" type="curve" smooth="yes"/>
      <point x="262" y="426" type="line"/>
      <point x="262" y="536" type="line"/>
      <point x="217" y="536" type="line"/>
      <point x="217" y="464" type="line"/>
      <point x="149" y="464" type="line"/>
      <point x="149" y="558" type="line" smooth="yes"/>
      <point x="149" y="585"/>
      <point x="163" y="600"/>
      <point x="190" y="600" type="curve" smooth="yes"/>
      <point x="291" y="600" type="line" smooth="yes"/>
      <point x="319" y="600"/>
      <point x="333" y="585"/>
      <point x="333" y="558" type="curve" smooth="yes"/>
      <point x="333" y="214" type="line"/>
      <point x="405" y="214" type="line"/>
      <point x="405" y="717" type="line"/>
      <point x="78" y="717" type="line"/>
      <point x="78" y="47" type="line"/>
      <point x="453" y="47" type="line"/>
    </contour>
    <contour>
      <point x="262" y="227" type="line"/>
      <point x="262" y="368" type="line"/>
      <point x="216" y="368" type="line"/>
      <point x="216" y="227" type="line"/>
    </contour>
  </outline>
</glyph>
<glyph name="A" format="2">
  <advance width="344"/>
  <unicode hex="0041"/>
  <anchor x="172.0" y="764" name="top"/>
  <outline>
    <contour>
      <point x="330" y="0" type="line"/>
      <point x="234" y="0" type="line"/>
      <point x="219" y="147" type="line"/>
      <point x="124" y="147" type="line"/>
      <point x="109" y="0" type="line"/>
      <point x="14" y="0" type="line"/>
      <point x="14" y="2" type="line"/>
      <point x="125" y="765" type="line"/>
      <point x="220" y="765" type="line"/>
      <point x="330" y="2" type="line"/>
    </contour>
    <contour>
      <point x="209" y="237" type="line"/>
      <point x="179" y="506" type="line"/>
      <point x="171" y="591" type="line"/>
      <point x="163" y="506" type="line"/>
      <point x="134" y="237" type="line"/>
    </contour>
  </outline>
</glyph>
<glyph name="B" format="2">
  <advance width="347"/>
  <unicode hex="0042"/>
  <outline>
    <contour>
      <point x="317" y="65" type="line" smooth="yes"/>
      <point x="317" y="21"/>
      <point x="297" y="0"/>
      <point x="252" y="0" type="curve" smooth="yes"/>
      <point x="31" y="0" type="line"/>
      <point x="31" y="764" type="line"/>
      <point x="250" y="764" type="line" smooth="yes"/>
      <point x="294" y="764"/>
      <point x="314" y="743"/>
      <point x="314" y="699" type="curve" smooth="yes"/>
      <point x="314" y="496" type="line" smooth="yes"/>
      <point x="314" y="458"/>
      <point x="306" y="444"/>
      <point x="278" y="424" type="curve" smooth="yes"/>
      <point x="244" y="400" type="line"/>
      <point x="280" y="375" type="line" smooth="yes"/>
      <point x="309" y="355"/>
      <point x="317" y="338"/>
      <point x="317" y="301" type="curve" smooth="yes"/>
    </contour>
    <contour>
      <point x="217" y="475" type="line"/>
      <point x="217" y="677" type="line"/>
      <point x="128" y="677" type="line"/>
      <point x="128" y="443" type="line"/>
      <point x="177" y="443" type="line"/>
    </contour>
    <contour>
      <point x="219" y="87" type="line"/>
      <point x="219" y="324" type="line"/>
      <point x="178" y="355" type="line"/>
      <point x="128" y="355" type="line"/>
      <point x="128" y="87" type="line"/>
    </contour>
  </outline>
</glyph>
<glyph name="C" format="2">
  <advance width="347"/>
  <unicode hex="0043"/>
  <anchor x="173.5" y="764" name="top"/>
  <outline>
    <contour>
      <point x="318" y="65" type="line" smooth="yes"/>
      <point x="318" y="21"/>
      <point x="297" y="0"/>
      <point x="253" y="0" type="curve" smooth="yes"/>
      <point x="94" y="0" type="line" smooth="yes"/>
      <point x="51" y="0"/>
      <point x="31" y="21"/>
      <point x="31" y="65" type="curve" smooth="yes"/>
      <point x="31" y="699" type="line" smooth="yes"/>
      <point x="31" y="743"/>
      <point x="51" y="764"/>
      <point x="94" y="764" type="curve" smooth="yes"/>
      <point x="253" y="764" type="line" smooth="yes"/>
      <point x="297" y="764"/>
      <point x="318" y="743"/>
      <point x="318" y="699" type="curve" smooth="yes"/>
      <point x="318" y="518" type="line"/>
      <point x="220" y="518" type="line"/>
      <point x="220" y="676" type="line"/>
      <point x="128" y="676" type="line"/>
      <point x="128" y="88" type="line"/>
      <point x="220" y="88" type="line"/>
      <point x="220" y="256" type="line"/>
      <point x="318" y="256" type="line"/>
    </contour>
  </outline>
</glyph>
<glyph name="D" format="2">
  <advance width="349"/>
  <unicode hex="0044"/>
  <anchor x="174.5" y="764" name="top"/>
  <outline>
    <contour>
      <point x="321" y="107" type="line" smooth="yes"/>
      <point x="321" y="38"/>
      <point x="283" y="0"/>
      <point x="213" y="0" type="curve" smooth="yes"/>
      <point x="31" y="0" type="line"/>
      <point x="31" y="764" type="line"/>
      <point x="213" y="764" type="line" smooth="yes"/>
      <point x="284" y="764"/>
      <point x="321" y="725"/>
      <point x="321" y="657" type="curve" smooth="yes"/>
    </contour>
    <contour>
      <point x="223" y="128" type="curve" smooth="yes"/>
      <point x="223" y="636" type="line" smooth="yes"/>
      <point x="223" y="662"/>
      <point x="208" y="676"/>
      <point x="182" y="676" type="curve" smooth="yes"/>
      <point x="128" y="676" type="line"/>
      <point x="128" y="88" type="line"/>
      <point x="180" y="88" type="line" smooth="yes"/>
      <point x="209" y="88"/>
      <point x="223" y="103"/>
    </contour>
  </outline>
</glyph>
<glyph name="E" format="2">
  <advance width="284"/>
  <unicode hex="0045"/>
  <anchor x="142.0" y="764" name="top"/>
  <anchor x="204" y="0" name="ogonek"/>
  <outline>
    <contour>
      <point x="263" y="0" type="line"/>
      <point x="31" y="0" type="line"/>
      <point x="31" y="764" type="line"/>
      <point x="260" y="764" type="line"/>
      <point x="260" y="673" type="line"/>
      <point x="128" y="673" type="line"/>
      <point x="128" y="439" type="line"/>
      <point x="246" y="439" type="line"/>
      <point x="246" y="349" type="line"/>
      <point x="128" y="349" type="line"/>
      <point x="128" y="91" type="line"/>
      <point x="263" y="91" type="line"/>
    </contour>
  </outline>
</glyph>
<glyph name="F" format="2">
  <advance width="275"/>
  <unicode hex="0046"/>
  <outline>
    <contour>
      <point x="261" y="673" type="line"/>
      <point x="128" y="673" type="line"/>
      <point x="128" y="437" type="line"/>
      <point x="242" y="437" type="line"/>
      <point x="242" y="348" type="line"/>
      <point x="128" y="348" type="line"/>
      <point x="128" y="0" type="line"/>
      <point x="31" y="0" type="line"/>
      <point x="31" y="764" type="line"/>
      <point x="261" y="764" type="line"/>
    </contour>
  </outline>
</glyph>
<glyph name="G" format="2">
  <advance width="349"/>
  <unicode hex="0047"/>
  <anchor x="174.5" y="764" name="top"/>
  <anchor x="174.5" y="0" name="bottom"/>
  <outline>
    <contour>
      <point x="319" y="65" type="line" smooth="yes"/>
      <point x="319" y="21"/>
      <point x="298" y="0"/>
      <point x="254" y="0" type="curve" smooth="yes"/>
      <point x="94" y="0" type="line" smooth="yes"/>
      <point x="51" y="0"/>
      <point x="31" y="21"/>
      <point x="31" y="65" type="curve" smooth="yes"/>
      <point x="31" y="699" type="line" smooth="yes"/>
      <point x="31" y="743"/>
      <point x="51" y="764"/>
      <point x="95" y="764" type="curve" smooth="yes"/>
      <point x="254" y="764" type="line" smooth="yes"/>
      <point x="298" y="764"/>
      <point x="319" y="743"/>
      <point x="319" y="699" type="curve" smooth="yes"/>
      <point x="319" y="534" type="line"/>
      <point x="221" y="534" type="line"/>
      <point x="221" y="676" type="line"/>
      <point x="128" y="676" type="line"/>
      <point x="128" y="88" type="line"/>
      <point x="221" y="88" type="line"/>
      <point x="221" y="316" type="line"/>
      <point x="168" y="316" type="line"/>
      <point x="168" y="406" type="line"/>
      <point x="319" y="406" type="line"/>
    </contour>
  </outline>
</glyph>
<glyph name="H" format="2">
  <advance width="354"/>
  <unicode hex="0048"/>
  <anchor x="177.0" y="764" name="top"/>
  <outline>
    <contour>
      <point x="324" y="0" type="line"/>
      <point x="226" y="0" type="line"/>
      <point x="226" y="352" type="line"/>
      <point x="128" y="352" type="line"/>
      <point x="128" y="0" type="line"/>
      <point x="31" y="0" type="line"/>
      <point x="31" y="764" type="line"/>
      <point x="128" y="764" type="line"/>
      <point x="128" y="447" type="line"/>
      <point x="226" y="447" type="line"/>
      <point x="226" y="764" type="line"/>
      <point x="324" y="764" type="line"/>
    </contour>
  </outline>
</glyph>
<glyph name="I" format="2">
  <advance width="161"/>
  <unicode hex="0049"/>
  <anchor x="161" y="0" name="ogonek"/>
  <anchor x="80.5" y="764" name="top"/>
  <outline>
    <contour>
      <point x="129" y="0" type="line"/>
      <point x="32" y="0" type="line"/>
      <point x="32" y="764" type="line"/>
      <point x="129" y="764" type="line"/>
    </contour>
  </outline>
</glyph>
<glyph name="J" format="2">
  <advance width="331"/>
  <unicode hex="004A"/>
  <anchor x="165.5" y="764" name="top"/>
  <outline>
    <contour>
      <point x="301" y="65" type="line" smooth="yes"/>
      <point x="301" y="21"/>
      <point x="281" y="0"/>
      <point x="236" y="0" type="curve" smooth="yes"/>
      <point x="88" y="0" type="line" smooth="yes"/>
      <point x="45" y="0"/>
      <point x="24" y="21"/>
      <point x="24" y="65" type="curve" smooth="yes"/>
      <point x="24" y="256" type="line"/>
      <point x="121" y="256" type="line"/>
      <point x="121" y="88" type="line"/>
      <point x="203" y="88" type="line"/>
      <point x="203" y="764" type="line"/>
      <point x="301" y="764" type="line"/>
    </contour>
  </outline>
</glyph>
<glyph name="K" format="2">
  <advance width="333"/>
  <unicode hex="004B"/>
  <anchor x="166.5" y="0" name="bottom"/>
  <outline>
    <contour>
      <point x="331" y="0" type="line"/>
      <point x="226" y="0" type="line"/>
      <point x="128" y="356" type="line"/>
      <point x="128" y="0" type="line"/>
      <point x="31" y="0" type="line"/>
      <point x="31" y="764" type="line"/>
      <point x="128" y="764" type="line"/>
      <point x="128" y="428" type="line"/>
      <point x="216" y="764" type="line"/>
      <point x="319" y="764" type="line"/>
      <point x="319" y="760" type="line"/>
      <point x="212" y="395" type="line"/>
      <point x="331" y="4" type="line"/>
    </contour>
  </outline>
</glyph>
<glyph name="L" format="2">
  <advance width="267"/>
  <unicode hex="004C"/>
  <anchor x="133.5" y="0" name="bottom"/>
  <anchor x="133.5" y="764" name="top"/>
  <anchor x="267" y="764" name="caron.vert"/>
  <outline>
    <contour>
      <point x="251" y="0" type="line"/>
      <point x="31" y="0" type="line"/>
      <point x="31" y="764" type="line"/>
      <point x="128" y="764" type="line"/>
      <point x="128" y="93" type="line"/>
      <point x="251" y="93" type="line"/>
    </contour>
  </outline>
</glyph>
<glyph name="M" format="2">
  <advance width="426"/>
  <unicode hex="004D"/>
  <outline>
    <contour>
      <point x="397" y="0" type="line"/>
      <point x="301" y="0" type="line"/>
      <point x="301" y="311" type="line" smooth="yes"/>
      <point x="301" y="345"/>
      <point x="311" y="426"/>
      <point x="311" y="426" type="curve"/>
      <point x="241" y="78" type="line"/>
      <point x="186" y="78" type="line"/>
      <point x="116" y="426" type="line"/>
      <point x="116" y="426"/>
      <point x="126" y="345"/>
      <point x="126" y="311" type="curve" smooth="yes"/>
      <point x="126" y="0" type="line"/>
      <point x="31" y="0" type="line"/>
      <point x="31" y="764" type="line"/>
      <point x="126" y="764" type="line"/>
      <point x="199" y="452" type="line" smooth="yes"/>
      <point x="208" y="413"/>
      <point x="212" y="384"/>
      <point x="213" y="345" type="curve"/>
      <point x="214" y="384"/>
      <point x="218" y="413"/>
      <point x="227" y="452" type="curve" smooth="yes"/>
      <point x="301" y="764" type="line"/>
      <point x="397" y="764" type="line"/>
    </contour>
  </outline>
</glyph>
<glyph name="N" format="2">
  <advance width="364"/>
  <unicode hex="004E"/>
  <anchor x="182.0" y="764" name="top"/>
  <anchor x="182.0" y="0" name="bottom"/>
  <outline>
    <contour>
      <point x="333" y="0" type="line"/>
      <point x="243" y="0" type="line"/>
      <point x="116" y="451" type="line"/>
      <point x="116" y="451"/>
      <point x="126" y="396"/>
      <point x="126" y="376" type="curve" smooth="yes"/>
      <point x="126" y="0" type="line"/>
      <point x="31" y="0" type="line"/>
      <point x="31" y="764" type="line"/>
      <point x="121" y="764" type="line"/>
      <point x="247" y="319" type="line"/>
      <point x="247" y="319"/>
      <point x="238" y="374"/>
      <point x="238" y="394" type="curve" smooth="yes"/>
      <point x="238" y="764" type="line"/>
      <point x="333" y="764" type="line"/>
    </contour>
  </outline>
</glyph>
<glyph name="O" format="2">
  <advance width="355"/>
  <unicode hex="004F"/>
  <anchor x="177.5" y="764" name="top"/>
  <outline>
    <contour>
      <point x="324" y="65" type="line" smooth="yes"/>
      <point x="324" y="21"/>
      <point x="304" y="0"/>
      <point x="260" y="0" type="curve" smooth="yes"/>
      <point x="94" y="0" type="line" smooth="yes"/>
      <point x="51" y="0"/>
      <point x="31" y="21"/>
      <point x="31" y="65" type="curve" smooth="yes"/>
      <point x="31" y="699" type="line" smooth="yes"/>
      <point x="31" y="743"/>
      <point x="51" y="764"/>
      <point x="94" y="764" type="curve" smooth="yes"/>
      <point x="260" y="764" type="line" smooth="yes"/>
      <point x="304" y="764"/>
      <point x="324" y="743"/>
      <point x="324" y="699" type="curve" smooth="yes"/>
    </contour>
    <contour>
      <point x="226" y="88" type="line"/>
      <point x="226" y="676" type="line"/>
      <point x="128" y="676" type="line"/>
      <point x="128" y="88" type="line"/>
    </contour>
  </outline>
</glyph>
<glyph name="P" format="2">
  <advance width="340"/>
  <unicode hex="0050"/>
  <outline>
    <contour>
      <point x="315" y="349" type="line" smooth="yes"/>
      <point x="315" y="305"/>
      <point x="294" y="284"/>
      <point x="250" y="284" type="curve" smooth="yes"/>
      <point x="128" y="284" type="line"/>
      <point x="128" y="0" type="line"/>
      <point x="31" y="0" type="line"/>
      <point x="31" y="764" type="line"/>
      <point x="250" y="764" type="line" smooth="yes"/>
      <point x="294" y="764"/>
      <point x="315" y="743"/>
      <point x="315" y="699" type="curve" smooth="yes"/>
    </contour>
    <contour>
      <point x="217" y="372" type="line"/>
      <point x="217" y="676" type="line"/>
      <point x="128" y="676" type="line"/>
      <point x="128" y="372" type="line"/>
    </contour>
  </outline>
</glyph>
<glyph name="Q" format="2">
  <advance width="363"/>
  <unicode hex="0051"/>
  <outline>
    <contour>
      <point x="360" y="-1" type="line"/>
      <point x="353" y="-1" type="line"/>
      <point x="318" y="31" type="line"/>
      <point x="316" y="27" type="line" smooth="yes"/>
      <point x="306" y="8"/>
      <point x="287" y="0"/>
      <point x="260" y="0" type="curve" smooth="yes"/>
      <point x="94" y="0" type="line" smooth="yes"/>
      <point x="51" y="0"/>
      <point x="31" y="21"/>
      <point x="31" y="65" type="curve" smooth="yes"/>
      <point x="31" y="699" type="line" smooth="yes"/>
      <point x="31" y="743"/>
      <point x="51" y="764"/>
      <point x="95" y="764" type="curve" smooth="yes"/>
      <point x="260" y="764" type="line" smooth="yes"/>
      <point x="304" y="764"/>
      <point x="324" y="743"/>
      <point x="324" y="699" type="curve" smooth="yes"/>
      <point x="324" y="126" type="line"/>
      <point x="360" y="95" type="line"/>
    </contour>
    <contour>
      <point x="226" y="88" type="line"/>
      <point x="226" y="121" type="line"/>
      <point x="183" y="160" type="line"/>
      <point x="183" y="255" type="line"/>
      <point x="189" y="255" type="line"/>
      <point x="226" y="223" type="line"/>
      <point x="226" y="676" type="line"/>
      <point x="128" y="676" type="line"/>
      <point x="128" y="88" type="line"/>
    </contour>
  </outline>
</glyph>
<glyph name="R" format="2">
  <advance width="348"/>
  <unicode hex="0052"/>
  <anchor x="174.0" y="764" name="top"/>
  <anchor x="174.0" y="0" name="bottom"/>
  <outline>
    <contour>
      <point x="333" y="0" type="line"/>
      <point x="234" y="0" type="line"/>
      <point x="150" y="342" type="line"/>
      <point x="150" y="424" type="line"/>
      <point x="220" y="424" type="line"/>
      <point x="220" y="676" type="line"/>
      <point x="128" y="676" type="line"/>
      <point x="128" y="0" type="line"/>
      <point x="31" y="0" type="line"/>
      <point x="31" y="764" type="line"/>
      <point x="253" y="764" type="line" smooth="yes"/>
      <point x="297" y="764"/>
      <point x="318" y="743"/>
      <point x="318" y="699" type="curve" smooth="yes"/>
      <point x="318" y="417" type="line" smooth="yes"/>
      <point x="318" y="377"/>
      <point x="301" y="359"/>
      <point x="267" y="356" type="curve"/>
      <point x="244" y="356" type="line"/>
      <point x="333" y="4" type="line"/>
    </contour>
  </outline>
</glyph>
<glyph name="S" format="2">
  <advance width="343"/>
  <unicode hex="0053"/>
  <anchor x="171.5" y="764" name="top"/>
  <anchor x="171.5" y="0" name="bottom"/>
  <outline>
    <contour>
      <point x="314" y="65" type="line" smooth="yes"/>
      <point x="314" y="21"/>
      <point x="293" y="0"/>
      <point x="249" y="0" type="curve" smooth="yes"/>
      <point x="94" y="0" type="line" smooth="yes"/>
      <point x="50" y="0"/>
      <point x="30" y="21"/>
      <point x="30" y="65" type="curve" smooth="yes"/>
      <point x="30" y="253" type="line"/>
      <point x="127" y="253" type="line"/>
      <point x="127" y="87" type="line"/>
      <point x="216" y="87" type="line"/>
      <point x="216" y="245" type="line"/>
      <point x="49" y="472" type="line" smooth="yes"/>
      <point x="34" y="493"/>
      <point x="30" y="503"/>
      <point x="30" y="531" type="curve" smooth="yes"/>
      <point x="30" y="699" type="line" smooth="yes"/>
      <point x="30" y="743"/>
      <point x="50" y="764"/>
      <point x="94" y="764" type="curve" smooth="yes"/>
      <point x="249" y="764" type="line" smooth="yes"/>
      <point x="293" y="764"/>
      <point x="314" y="743"/>
      <point x="314" y="699" type="curve" smooth="yes"/>
      <point x="314" y="522" type="line"/>
      <point x="216" y="522" type="line"/>
      <point x="216" y="677" type="line"/>
      <point x="127" y="677" type="line"/>
      <point x="127" y="529" type="line"/>
      <point x="294" y="302" type="line" smooth="yes"/>
      <point x="310" y="281"/>
      <point x="314" y="271"/>
      <point x="314" y="243" type="curve" smooth="yes"/>
    </contour>
  </outline>
</glyph>
<glyph name="T" format="2">
  <advance width="290"/>
  <unicode hex="0054"/>
  <anchor x="145.0" y="764" name="top"/>
  <anchor x="145.0" y="0" name="bottom"/>
  <outline>
    <contour>
      <point x="282" y="673" type="line"/>
      <point x="194" y="673" type="line"/>
      <point x="194" y="0" type="line"/>
      <point x="97" y="0" type="line"/>
      <point x="97" y="673" type="line"/>
      <point x="9" y="673" type="line"/>
      <point x="9" y="764" type="line"/>
      <point x="282" y="764" type="line"/>
    </contour>
  </outline>
</glyph>
<glyph name="U" format="2">
  <advance width="355"/>
  <unicode hex="0055"/>
  <anchor x="177.5" y="764" name="top"/>
  <outline>
    <contour>
      <point x="324" y="65" type="line" smooth="yes"/>
      <point x="324" y="21"/>
      <point x="303" y="0"/>
      <point x="259" y="0" type="curve" smooth="yes"/>
      <point x="95" y="0" type="line" smooth="yes"/>
      <point x="51" y="0"/>
      <point x="31" y="21"/>
      <point x="31" y="65" type="curve" smooth="yes"/>
      <point x="31" y="764" type="line"/>
      <point x="128" y="764" type="line"/>
      <point x="128" y="88" type="line"/>
      <point x="226" y="88" type="line"/>
      <point x="226" y="764" type="line"/>
      <point x="324" y="764" type="line"/>
    </contour>
  </outline>
</glyph>
<glyph name="V" format="2">
  <advance width="341"/>
  <unicode hex="0056"/>
  <outline>
    <contour>
      <point x="328" y="762" type="line"/>
      <point x="220" y="-1" type="line"/>
      <point x="123" y="-1" type="line"/>
      <point x="16" y="762" type="line"/>
      <point x="16" y="764" type="line"/>
      <point x="114" y="764" type="line"/>
      <point x="169" y="275" type="line" smooth="yes"/>
      <point x="170" y="270"/>
      <point x="172" y="205"/>
      <point x="172" y="205" type="curve"/>
      <point x="172" y="205"/>
      <point x="174" y="270"/>
      <point x="175" y="275" type="curve" smooth="yes"/>
      <point x="230" y="764" type="line"/>
      <point x="328" y="764" type="line"/>
    </contour>
  </outline>
</glyph>
<glyph name="W" format="2">
  <advance width="474"/>
  <unicode hex="0057"/>
  <anchor x="237.0" y="764" name="top"/>
  <outline>
    <contour>
      <point x="461" y="764" type="line"/>
      <point x="378" y="-1" type="line"/>
      <point x="285" y="-1" type="line"/>
      <point x="239" y="394" type="line"/>
      <point x="237" y="477" type="line"/>
      <point x="235" y="394" type="line"/>
      <point x="188" y="-1" type="line"/>
      <point x="95" y="-1" type="line"/>
      <point x="12" y="764" type="line"/>
      <point x="111" y="764" type="line"/>
      <point x="144" y="329" type="line"/>
      <point x="146" y="242" type="line"/>
      <point x="149" y="329" type="line"/>
      <point x="197" y="764" type="line"/>
      <point x="276" y="764" type="line"/>
      <point x="323" y="329" type="line"/>
      <point x="326" y="241" type="line"/>
      <point x="328" y="329" type="line"/>
      <point x="362" y="764" type="line"/>
    </contour>
  </outline>
</glyph>
<glyph name="X" format="2">
  <advance width="332"/>
  <unicode hex="0058"/>
  <outline>
    <contour>
      <point x="325" y="0" type="line"/>
      <point x="222" y="0" type="line"/>
      <point x="166" y="267" type="line"/>
      <point x="110" y="0" type="line"/>
      <point x="8" y="0" type="line"/>
      <point x="8" y="3" type="line"/>
      <point x="107" y="389" type="line"/>
      <point x="15" y="761" type="line"/>
      <point x="15" y="764" type="line"/>
      <point x="115" y="764" type="line"/>
      <point x="166" y="509" type="line"/>
      <point x="218" y="764" type="line"/>
      <point x="318" y="764" type="line"/>
      <point x="318" y="761" type="line"/>
      <point x="226" y="390" type="line"/>
      <point x="325" y="3" type="line"/>
    </contour>
  </outline>
</glyph>
<glyph name="Y" format="2">
  <advance width="335"/>
  <unicode hex="0059"/>
  <anchor x="167.5" y="764" name="top"/>
  <outline>
    <contour>
      <point x="327" y="761" type="line"/>
      <point x="217" y="281" type="line"/>
      <point x="217" y="0" type="line"/>
      <point x="118" y="0" type="line"/>
      <point x="118" y="282" type="line"/>
      <point x="9" y="761" type="line"/>
      <point x="9" y="764" type="line"/>
      <point x="109" y="764" type="line"/>
      <point x="168" y="443" type="line"/>
      <point x="227" y="764" type="line"/>
      <point x="327" y="764" type="line"/>
    </contour>
  </outline>
</glyph>
<glyph name="Z" format="2">
  <advance width="286"/>
  <unicode hex="005A"/>
  <anchor x="143.0" y="764" name="top"/>
  <outline>
    <contour>
      <point x="272" y="0" type="line"/>
      <point x="15" y="0" type="line"/>
      <point x="15" y="63" type="line"/>
      <point x="168" y="671" type="line"/>
      <point x="28" y="671" type="line"/>
      <point x="28" y="764" type="line"/>
      <point x="270" y="764" type="line"/>
      <point x="270" y="696" type="line"/>
      <point x="117" y="94" type="line"/>
      <point x="272" y="94" type="line"/>
    </contour>
  </outline>
</glyph>
<glyph name="bracketleft" format="2">
  <advance width="231"/>
  <unicode hex="005B"/>
  <outline>
    <contour>
      <point x="209" y="-121" type="line"/>
      <point x="97" y="-121" type="line" smooth="yes"/>
      <point x="54" y="-121"/>
      <point x="33" y="-101"/>
      <point x="33" y="-57" type="curve" smooth="yes"/>
      <point x="33" y="701" type="line" smooth="yes"/>
      <point x="33" y="744"/>
      <point x="54" y="764"/>
      <point x="97" y="764" type="curve" smooth="yes"/>
      <point x="209" y="764" type="line"/>
      <point x="209" y="673" type="line"/>
      <point x="130" y="673" type="line"/>
      <point x="130" y="-30" type="line"/>
      <point x="209" y="-30" type="line"/>
    </contour>
  </outline>
</glyph>
<glyph name="backslash" format="2">
  <advance width="349"/>
  <unicode hex="005C"/>
  <outline>
    <contour>
      <point x="336" y="0" type="line"/>
      <point x="246" y="0" type="line"/>
      <point x="14" y="757" type="line"/>
      <point x="14" y="764" type="line"/>
      <point x="104" y="764" type="line"/>
      <point x="336" y="7" type="line"/>
    </contour>
  </outline>
</glyph>
<glyph name="bracketright" format="2">
  <advance width="231"/>
  <unicode hex="005D"/>
  <outline>
    <contour>
      <point x="199" y="-57" type="line" smooth="yes"/>
      <point x="199" y="-101"/>
      <point x="178" y="-121"/>
      <point x="135" y="-121" type="curve" smooth="yes"/>
      <point x="22" y="-121" type="line"/>
      <point x="22" y="-30" type="line"/>
      <point x="102" y="-30" type="line"/>
      <point x="102" y="673" type="line"/>
      <point x="22" y="673" type="line"/>
      <point x="22" y="764" type="line"/>
      <point x="135" y="764" type="line" smooth="yes"/>
      <point x="177" y="764"/>
      <point x="199" y="744"/>
      <point x="199" y="701" type="curve" smooth="yes"/>
    </contour>
  </outline>
</glyph>
<glyph name="asciicircum" format="2">
  <advance width="321"/>
  <unicode hex="005E"/>
  <outline>
    <contour>
      <point x="299" y="494" type="line"/>
      <point x="223" y="494" type="line"/>
      <point x="160" y="647" type="line"/>
      <point x="96" y="494" type="line"/>
      <point x="22" y="494" type="line"/>
      <point x="22" y="500" type="line"/>
      <point x="115" y="764" type="line"/>
      <point x="208" y="764" type="line"/>
      <point x="299" y="500" type="line"/>
    </contour>
  </outline>
</glyph>
<glyph name="underscore" format="2">
  <advance width="317"/>
  <unicode hex="005F"/>
  <outline>
    <contour>
      <point x="317" y="-200" type="line"/>
      <point x="0" y="-200" type="line"/>
      <point x="0" y="-123" type="line"/>
      <point x="317" y="-123" type="line"/>
    </contour>
  </outline>
</glyph>
<glyph name="grave" format="2">
  <advance width="311"/>
  <unicode hex="0060"/>
  <outline>
    <contour>
      <point x="267" y="519" type="line"/>
      <point x="196" y="519" type="line"/>
      <point x="78" y="635" type="line"/>
      <point x="78" y="640" type="line"/>
      <point x="194" y="640" type="line"/>
      <point x="267" y="523" type="line"/>
    </contour>
  </outline>
</glyph>
<glyph name="a" format="2">
  <advance width="306"/>
  <unicode hex="0061"/>
  <anchor x="153.0" y="493" name="top"/>
  <anchor x="306" y="0" name="ogonek"/>
  <outline>
    <contour>
      <point x="280" y="0" type="line"/>
      <point x="188" y="0" type="line"/>
      <point x="188" y="15" type="line"/>
      <point x="110" y="3" type="line" smooth="yes"/>
      <point x="96" y="1"/>
      <point x="86" y="-2"/>
      <point x="76" y="-2" type="curve" smooth="yes"/>
      <point x="41" y="-2"/>
      <point x="25" y="16"/>
      <point x="25" y="51" type="curve" smooth="yes"/>
      <point x="25" y="242" type="line" smooth="yes"/>
      <point x="25" y="279"/>
      <point x="43" y="296"/>
      <point x="80" y="296" type="curve" smooth="yes"/>
      <point x="189" y="296" type="line"/>
      <point x="189" y="416" type="line"/>
      <point x="118" y="416" type="line"/>
      <point x="118" y="339" type="line"/>
      <point x="29" y="339" type="line"/>
      <point x="29" y="439" type="line" smooth="yes"/>
      <point x="29" y="475"/>
      <point x="47" y="493"/>
      <point x="84" y="493" type="curve" smooth="yes"/>
      <point x="226" y="493" type="line" smooth="yes"/>
      <point x="263" y="493"/>
      <point x="280" y="475"/>
      <point x="280" y="439" type="curve" smooth="yes"/>
    </contour>
    <contour>
      <point x="189" y="81" type="line"/>
      <point x="189" y="224" type="line"/>
      <point x="118" y="224" type="line"/>
      <point x="118" y="78" type="line"/>
    </contour>
  </outline>
</glyph>
<glyph name="c" format="2">
  <advance width="307"/>
  <unicode hex="0063"/>
  <anchor x="153.5" y="493" name="top"/>
  <outline>
    <contour>
      <point x="281" y="54" type="line" smooth="yes"/>
      <point x="281" y="18"/>
      <point x="263" y="0"/>
      <point x="227" y="0" type="curve" smooth="yes"/>
      <point x="81" y="0" type="line" smooth="yes"/>
      <point x="44" y="0"/>
      <point x="26" y="18"/>
      <point x="26" y="54" type="curve" smooth="yes"/>
      <point x="26" y="439" type="line" smooth="yes"/>
      <point x="26" y="475"/>
      <point x="44" y="493"/>
      <point x="81" y="493" type="curve" smooth="yes"/>
      <point x="227" y="493" type="line" smooth="yes"/>
      <point x="263" y="493"/>
      <point x="281" y="475"/>
      <point x="281" y="439" type="curve" smooth="yes"/>
      <point x="281" y="312" type="line"/>
      <point x="188" y="312" type="line"/>
      <point x="188" y="411" type="line"/>
      <point x="120" y="411" type="line"/>
      <point x="120" y="82" type="line"/>
      <point x="188" y="82" type="line"/>
      <point x="188" y="191" type="line"/>
      <point x="281" y="191" type="line"/>
    </contour>
  </outline>
</glyph>
<glyph name="d" format="2">
  <advance width="314"/>
  <unicode hex="0064"/>
  <anchor x="314" y="493" name="caron.vert"/>
  <outline>
    <contour>
      <point x="287" y="0" type="line"/>
      <point x="192" y="0" type="line"/>
      <point x="192" y="15" type="line"/>
      <point x="129" y="3" type="line" smooth="yes"/>
      <point x="118" y="1"/>
      <point x="102" y="-3"/>
      <point x="91" y="-3" type="curve" smooth="yes"/>
      <point x="49" y="-3"/>
      <point x="26" y="23"/>
      <point x="26" y="66" type="curve" smooth="yes"/>
      <point x="26" y="410" type="line" smooth="yes"/>
      <point x="26" y="462"/>
      <point x="56" y="493"/>
      <point x="111" y="493" type="curve" smooth="yes"/>
      <point x="192" y="493" type="line"/>
      <point x="192" y="764" type="line"/>
      <point x="287" y="764" type="line"/>
    </contour>
    <contour>
      <point x="192" y="85" type="line"/>
      <point x="192" y="411" type="line"/>
      <point x="146" y="411" type="line" smooth="yes"/>
      <point x="128" y="411"/>
      <point x="121" y="403"/>
      <point x="121" y="386" type="curve" smooth="yes"/>
      <point x="121" y="103" type="line" smooth="yes"/>
      <point x="121" y="89"/>
      <point x="128" y="81"/>
      <point x="143" y="81" type="curve" smooth="yes"/>
      <point x="147" y="81"/>
      <point x="153" y="81"/>
      <point x="158" y="82" type="curve"/>
    </contour>
  </outline>
</glyph>
<glyph name="e" format="2">
  <advance width="307"/>
  <unicode hex="0065"/>
  <anchor x="153.5" y="493" name="top"/>
  <outline>
    <contour>
      <point x="281" y="54" type="line" smooth="yes"/>
      <point x="281" y="18"/>
      <point x="263" y="0"/>
      <point x="226" y="0" type="curve" smooth="yes"/>
      <point x="81" y="0" type="line" smooth="yes"/>
      <point x="44" y="0"/>
      <point x="26" y="18"/>
      <point x="26" y="54" type="curve" smooth="yes"/>
      <point x="26" y="439" type="line" smooth="yes"/>
      <point x="26" y="475"/>
      <point x="44" y="493"/>
      <point x="81" y="493" type="curve" smooth="yes"/>
      <point x="226" y="493" type="line" smooth="yes"/>
      <point x="263" y="493"/>
      <point x="281" y="475"/>
      <point x="281" y="439" type="curve" smooth="yes"/>
      <point x="281" y="251" type="line"/>
      <point x="252" y="222" type="line"/>
      <point x="119" y="222" type="line"/>
      <point x="119" y="77" type="line"/>
      <point x="189" y="77" type="line"/>
      <point x="189" y="176" type="line"/>
      <point x="281" y="176" type="line"/>
    </contour>
    <contour>
      <point x="189" y="292" type="line"/>
      <point x="189" y="416" type="line"/>
      <point x="119" y="416" type="line"/>
      <point x="119" y="292" type="line"/>
    </contour>
  </outline>
</glyph>
<glyph name="f" format="2">
  <advance width="194"/>
  <unicode hex="0066"/>
  <outline>
    <contour>
      <point x="195" y="676" type="line"/>
      <point x="139" y="676" type="line"/>
      <point x="139" y="493" type="line"/>
      <point x="185" y="493" type="line"/>
      <point x="185" y="406" type="line"/>
      <point x="139" y="406" type="line"/>
      <point x="139" y="0" type="line"/>
      <point x="44" y="0" type="line"/>
      <point x="44" y="406" type="line"/>
      <point x="9" y="406" type="line"/>
      <point x="9" y="493" type="line"/>
      <point x="44" y="493" type="line"/>
      <point x="44" y="710" type="line" smooth="yes"/>
      <point x="44" y="746"/>
      <point x="62" y="764"/>
      <point x="98" y="764" type="curve" smooth="yes"/>
      <point x="195" y="764" type="line"/>
    </contour>
  </outline>
</glyph>
<glyph name="g" format="2">
  <advance width="314"/>
  <unicode hex="0067"/>
  <anchor x="157.0" y="493" name="top"/>
  <outline>
    <contour>
      <point x="287" y="-126" type="line" smooth="yes"/>
      <point x="287" y="-162"/>
      <point x="270" y="-180"/>
      <point x="233" y="-180" type="curve" smooth="yes"/>
      <point x="87" y="-180" type="line" smooth="yes"/>
      <point x="50" y="-180"/>
      <point x="32" y="-162"/>
      <point x="32" y="-126" type="curve" smooth="yes"/>
      <point x="32" y="-40" type="line"/>
      <point x="125" y="-40" type="line"/>
      <point x="125" y="-105" type="line"/>
      <point x="192" y="-105" type="line"/>
      <point x="192" y="0" type="line"/>
      <point x="110" y="0" type="line" smooth="yes"/>
      <point x="56" y="0"/>
      <point x="26" y="30"/>
      <point x="26" y="83" type="curve" smooth="yes"/>
      <point x="26" y="426" type="line" smooth="yes"/>
      <point x="26" y="470"/>
      <point x="49" y="495"/>
      <point x="91" y="495" type="curve" smooth="yes"/>
      <point x="103" y="495"/>
      <point x="118" y="492"/>
      <point x="129" y="490" type="curve" smooth="yes"/>
      <point x="192" y="478" type="line"/>
      <point x="192" y="493" type="line"/>
      <point x="287" y="493" type="line"/>
    </contour>
    <contour>
      <point x="192" y="82" type="line"/>
      <point x="192" y="407" type="line"/>
      <point x="160" y="411" type="line" smooth="yes"/>
      <point x="155" y="412"/>
      <point x="148" y="412"/>
      <point x="143" y="412" type="curve" smooth="yes"/>
      <point x="128" y="412"/>
      <point x="121" y="404"/>
      <point x="121" y="390" type="curve" smooth="yes"/>
      <point x="121" y="107" type="line" smooth="yes"/>
      <point x="121" y="90"/>
      <point x="128" y="82"/>
      <point x="146" y="82" type="curve" smooth="yes"/>
    </contour>
  </outline>
</glyph>
<glyph name="h" format="2">
  <advance width="314"/>
  <unicode hex="0068"/>
  <anchor x="157.0" y="493" name="top"/>
  <outline>
    <contour>
      <point x="288" y="0" type="line"/>
      <point x="192" y="0" type="line"/>
      <point x="192" y="411" type="line"/>
      <point x="122" y="409" type="line"/>
      <point x="122" y="0" type="line"/>
      <point x="26" y="0" type="line"/>
      <point x="26" y="764" type="line"/>
      <point x="122" y="764" type="line"/>
      <point x="122" y="478" type="line"/>
      <point x="202" y="490" type="line"/>
      <point x="213" y="493"/>
      <point x="227" y="495"/>
      <point x="237" y="495" type="curve" smooth="yes"/>
      <point x="272" y="495"/>
      <point x="288" y="476"/>
      <point x="288" y="442" type="curve" smooth="yes"/>
    </contour>
  </outline>
</glyph>
<glyph name="i" format="2">
  <advance width="150"/>
  <unicode hex="0069"/>
  <anchor x="150" y="0" name="ogonek"/>
  <outline>
    <contour>
      <point x="123" y="553" type="line"/>
      <point x="27" y="553" type="line"/>
      <point x="27" y="667" type="line"/>
      <point x="123" y="667" type="line"/>
    </contour>
    <contour>
      <point x="123" y="0" type="line"/>
      <point x="28" y="0" type="line"/>
      <point x="28" y="493" type="line"/>
      <point x="123" y="493" type="line"/>
    </contour>
  </outline>
</glyph>
<glyph name="j" format="2">
  <advance width="150"/>
  <unicode hex="006A"/>
  <outline>
    <contour>
      <point x="123" y="553" type="line"/>
      <point x="27" y="553" type="line"/>
      <point x="27" y="667" type="line"/>
      <point x="123" y="667" type="line"/>
    </contour>
    <contour>
      <point x="123" y="-126" type="line" smooth="yes"/>
      <point x="123" y="-162"/>
      <point x="106" y="-180"/>
      <point x="69" y="-180" type="curve" smooth="yes"/>
      <point x="-30" y="-180" type="line"/>
      <point x="-30" y="-94" type="line"/>
      <point x="28" y="-94" type="line"/>
      <point x="28" y="493" type="line"/>
      <point x="123" y="493" type="line"/>
    </contour>
  </outline>
</glyph>
<glyph name="k" format="2">
  <advance width="297"/>
  <unicode hex="006B"/>
  <anchor x="148.5" y="0" name="bottom"/>
  <outline>
    <contour>
      <point x="293" y="0" type="line"/>
      <point x="193" y="0" type="line"/>
      <point x="122" y="235" type="line"/>
      <point x="122" y="0" type="line"/>
      <point x="26" y="0" type="line"/>
      <point x="26" y="764" type="line"/>
      <point x="122" y="764" type="line"/>
      <point x="122" y="302" type="line"/>
      <point x="185" y="493" type="line"/>
      <point x="283" y="493" type="line"/>
      <point x="283" y="491" type="line"/>
      <point x="201" y="269" type="line"/>
      <point x="293" y="2" type="line"/>
    </contour>
  </outline>
</glyph>
<glyph name="l" format="2">
  <advance width="151"/>
  <unicode hex="006C"/>
  <anchor x="151" y="493" name="caron.vert"/>
  <anchor x="75.5" y="493" name="top"/>
  <anchor x="75.5" y="0" name="bottom"/>
  <outline>
    <contour>
      <point x="123" y="0" type="line"/>
      <point x="28" y="0" type="line"/>
      <point x="28" y="764" type="line"/>
      <point x="123" y="764" type="line"/>
    </contour>
  </outline>
</glyph>
<glyph name="m" format="2">
  <advance width="478"/>
  <unicode hex="006D"/>
  <outline>
    <contour>
      <point x="452" y="0" type="line"/>
      <point x="356" y="0" type="line"/>
      <point x="356" y="411" type="line"/>
      <point x="287" y="409" type="line"/>
      <point x="287" y="0" type="line"/>
      <point x="192" y="0" type="line"/>
      <point x="192" y="411" type="line"/>
      <point x="122" y="409" type="line"/>
      <point x="122" y="0" type="line"/>
      <point x="26" y="0" type="line"/>
      <point x="26" y="493" type="line"/>
      <point x="122" y="493" type="line"/>
      <point x="122" y="478" type="line"/>
      <point x="201" y="490" type="line"/>
      <point x="212" y="493"/>
      <point x="228" y="495"/>
      <point x="238" y="495" type="curve" smooth="yes"/>
      <point x="258" y="495"/>
      <point x="271" y="488"/>
      <point x="277" y="480" type="curve"/>
      <point x="279" y="476" type="line"/>
      <point x="366" y="490" type="line"/>
      <point x="377" y="493"/>
      <point x="392" y="495"/>
      <point x="402" y="495" type="curve" smooth="yes"/>
      <point x="437" y="495"/>
      <point x="452" y="476"/>
      <point x="452" y="442" type="curve" smooth="yes"/>
    </contour>
  </outline>
</glyph>
<glyph name="n" format="2">
  <advance width="314"/>
  <unicode hex="006E"/>
  <anchor x="157.0" y="493" name="top"/>
  <anchor x="157.0" y="0" name="bottom"/>
  <outline>
    <contour>
      <point x="288" y="0" type="line"/>
      <point x="192" y="0" type="line"/>
      <point x="192" y="411" type="line"/>
      <point x="122" y="409" type="line"/>
      <point x="122" y="0" type="line"/>
      <point x="26" y="0" type="line"/>
      <point x="26" y="493" type="line"/>
      <point x="122" y="493" type="line"/>
      <point x="122" y="478" type="line"/>
      <point x="201" y="490" type="line"/>
      <point x="213" y="493"/>
      <point x="227" y="495"/>
      <point x="237" y="495" type="curve" smooth="yes"/>
      <point x="272" y="495"/>
      <point x="288" y="476"/>
      <point x="288" y="442" type="curve" smooth="yes"/>
    </contour>
  </outline>
</glyph>
<glyph name="o" format="2">
  <advance width="310"/>
  <unicode hex="006F"/>
  <anchor x="155.0" y="493" name="top"/>
  <outline>
    <contour>
      <point x="284" y="54" type="line" smooth="yes"/>
      <point x="284" y="18"/>
      <point x="266" y="0"/>
      <point x="230" y="0" type="curve" smooth="yes"/>
      <point x="81" y="0" type="line" smooth="yes"/>
      <point x="44" y="0"/>
      <point x="26" y="18"/>
      <point x="26" y="54" type="curve" smooth="yes"/>
      <point x="26" y="439" type="line" smooth="yes"/>
      <point x="26" y="475"/>
      <point x="44" y="493"/>
      <point x="81" y="493" type="curve" smooth="yes"/>
      <point x="230" y="493" type="line" smooth="yes"/>
      <point x="266" y="493"/>
      <point x="284" y="475"/>
      <point x="284" y="439" type="curve" smooth="yes"/>
    </contour>
    <contour>
      <point x="191" y="82" type="line"/>
      <point x="191" y="411" type="line"/>
      <point x="120" y="411" type="line"/>
      <point x="120" y="82" type="line"/>
    </contour>
  </outline>
</glyph>
<glyph name="q" format="2">
  <advance width="314"/>
  <unicode hex="0071"/>
  <outline>
    <contour>
      <point x="287" y="-180" type="line"/>
      <point x="192" y="-180" type="line"/>
      <point x="192" y="0" type="line"/>
      <point x="110" y="0" type="line" smooth="yes"/>
      <point x="56" y="0"/>
      <point x="26" y="31"/>
      <point x="26" y="83" type="curve" smooth="yes"/>
      <point x="26" y="426" type="line" smooth="yes"/>
      <point x="26" y="470"/>
      <point x="49" y="495"/>
      <point x="91" y="495" type="curve" smooth="yes"/>
      <point x="102" y="495"/>
      <point x="117" y="492"/>
      <point x="129" y="490" type="curve" smooth="yes"/>
      <point x="192" y="478" type="line"/>
      <point x="192" y="493" type="line"/>
      <point x="287" y="493" type="line"/>
    </contour>
    <contour>
      <point x="192" y="82" type="line"/>
      <point x="192" y="407" type="line"/>
      <point x="158" y="411" type="line" smooth="yes"/>
      <point x="153" y="412"/>
      <point x="147" y="412"/>
      <point x="143" y="412" type="curve" smooth="yes"/>
      <point x="128" y="412"/>
      <point x="121" y="404"/>
      <point x="121" y="390" type="curve" smooth="yes"/>
      <point x="121" y="107" type="line" smooth="yes"/>
      <point x="121" y="90"/>
      <point x="128" y="82"/>
      <point x="145" y="82" type="curve" smooth="yes"/>
    </contour>
  </outline>
</glyph>
<glyph name="r" format="2">
  <advance width="292"/>
  <unicode hex="0072"/>
  <anchor x="146.0" y="493" name="top"/>
  <anchor x="146.0" y="0" name="bottom"/>
  <outline>
    <contour>
      <point x="276" y="288" type="line"/>
      <point x="181" y="288" type="line"/>
      <point x="181" y="411" type="line"/>
      <point x="122" y="409" type="line"/>
      <point x="122" y="0" type="line"/>
      <point x="26" y="0" type="line"/>
      <point x="26" y="493" type="line"/>
      <point x="122" y="493" type="line"/>
      <point x="122" y="478" type="line"/>
      <point x="190" y="490" type="line" smooth="yes"/>
      <point x="202" y="492"/>
      <point x="216" y="495"/>
      <point x="226" y="495" type="curve" smooth="yes"/>
      <point x="261" y="495"/>
      <point x="276" y="476"/>
      <point x="276" y="442" type="curve" smooth="yes"/>
    </contour>
  </outline>
</glyph>
<glyph name="s" format="2">
  <advance width="301"/>
  <unicode hex="0073"/>
  <anchor x="150.5" y="0" name="bottom"/>
  <anchor x="150.5" y="493" name="top"/>
  <outline>
    <contour>
      <point x="276" y="54" type="line" smooth="yes"/>
      <point x="276" y="18"/>
      <point x="259" y="0"/>
      <point x="222" y="0" type="curve" smooth="yes"/>
      <point x="79" y="0" type="line" smooth="yes"/>
      <point x="43" y="0"/>
      <point x="25" y="18"/>
      <point x="25" y="54" type="curve" smooth="yes"/>
      <point x="25" y="170" type="line"/>
      <point x="118" y="170" type="line"/>
      <point x="118" y="78" type="line"/>
      <point x="184" y="78" type="line"/>
      <point x="184" y="162" type="line"/>
      <point x="52" y="274" type="line"/>
      <point x="32" y="288"/>
      <point x="25" y="300"/>
      <point x="25" y="323" type="curve" smooth="yes"/>
      <point x="25" y="439" type="line" smooth="yes"/>
      <point x="25" y="475"/>
      <point x="43" y="493"/>
      <point x="80" y="493" type="curve" smooth="yes"/>
      <point x="222" y="493" type="line" smooth="yes"/>
      <point x="258" y="493"/>
      <point x="276" y="475"/>
      <point x="276" y="439" type="curve" smooth="yes"/>
      <point x="276" y="331" type="line"/>
      <point x="184" y="331" type="line"/>
      <point x="184" y="415" type="line"/>
      <point x="118" y="415" type="line"/>
      <point x="118" y="340" type="line"/>
      <point x="250" y="229" type="line" smooth="yes"/>
      <point x="268" y="214"/>
      <point x="276" y="204"/>
      <point x="276" y="179" type="curve" smooth="yes"/>
    </contour>
  </outline>
</glyph>
<glyph name="t" format="2">
  <advance width="207"/>
  <unicode hex="0074"/>
  <anchor x="103.5" y="0" name="bottom"/>
  <anchor x="207" y="493" name="caron.vert"/>
  <outline>
    <contour>
      <point x="194" y="0" type="line"/>
      <point x="100" y="0" type="line" smooth="yes"/>
      <point x="64" y="0"/>
      <point x="46" y="18"/>
      <point x="46" y="54" type="curve" smooth="yes"/>
      <point x="46" y="406" type="line"/>
      <point x="8" y="406" type="line"/>
      <point x="8" y="493" type="line"/>
      <point x="46" y="493" type="line"/>
      <point x="46" y="626" type="line"/>
      <point x="142" y="626" type="line"/>
      <point x="142" y="493" type="line"/>
      <point x="192" y="493" type="line"/>
      <point x="192" y="406" type="line"/>
      <point x="142" y="406" type="line"/>
      <point x="142" y="87" type="line"/>
      <point x="194" y="87" type="line"/>
    </contour>
  </outline>
</glyph>
<glyph name="u" format="2">
  <advance width="314"/>
  <unicode hex="0075"/>
  <anchor x="157.0" y="493" name="top"/>
  <anchor x="314" y="0" name="ogonek"/>
  <outline>
    <contour>
      <point x="288" y="0" type="line"/>
      <point x="192" y="0" type="line"/>
      <point x="192" y="15" type="line"/>
      <point x="113" y="2" type="line" smooth="yes"/>
      <point x="102" y="0"/>
      <point x="88" y="-3"/>
      <point x="77" y="-3" type="curve" smooth="yes"/>
      <point x="42" y="-3"/>
      <point x="26" y="16"/>
      <point x="26" y="51" type="curve" smooth="yes"/>
      <point x="26" y="493" type="line"/>
      <point x="122" y="493" type="line"/>
      <point x="122" y="82" type="line"/>
      <point x="192" y="84" type="line"/>
      <point x="192" y="493" type="line"/>
      <point x="288" y="493" type="line"/>
    </contour>
  </outline>
</glyph>
<glyph name="v" format="2">
  <advance width="306"/>
  <unicode hex="0076"/>
  <outline>
    <contour>
      <point x="296" y="493" type="line"/>
      <point x="200" y="-1" type="line"/>
      <point x="106" y="-1" type="line"/>
      <point x="10" y="493" type="line"/>
      <point x="108" y="493" type="line"/>
      <point x="154" y="173" type="line"/>
      <point x="199" y="493" type="line"/>
    </contour>
  </outline>
</glyph>
<glyph name="w" format="2">
  <advance width="418"/>
  <unicode hex="0077"/>
  <anchor x="209.0" y="493" name="top"/>
  <outline>
    <contour>
      <point x="408" y="493" type="line"/>
      <point x="330" y="-1" type="line"/>
      <point x="245" y="-1" type="line"/>
      <point x="209" y="260" type="line"/>
      <point x="173" y="-1" type="line"/>
      <point x="89" y="-1" type="line"/>
      <point x="10" y="493" type="line"/>
      <point x="100" y="493" type="line"/>
      <point x="138" y="181" type="line"/>
      <point x="174" y="493" type="line"/>
      <point x="244" y="493" type="line"/>
      <point x="281" y="181" type="line"/>
      <point x="318" y="493" type="line"/>
    </contour>
  </outline>
</glyph>
<glyph name="x" format="2">
  <advance width="297"/>
  <unicode hex="0078"/>
  <outline>
    <contour>
      <point x="291" y="0" type="line"/>
      <point x="190" y="0" type="line"/>
      <point x="149" y="163" type="line"/>
      <point x="107" y="0" type="line"/>
      <point x="6" y="0" type="line"/>
      <point x="6" y="2" type="line"/>
      <point x="92" y="255" type="line"/>
      <point x="14" y="491" type="line"/>
      <point x="14" y="493" type="line"/>
      <point x="112" y="493" type="line"/>
      <point x="148" y="347" type="line"/>
      <point x="187" y="493" type="line"/>
      <point x="284" y="493" type="line"/>
      <point x="284" y="491" type="line"/>
      <point x="205" y="255" type="line"/>
      <point x="291" y="2" type="line"/>
    </contour>
  </outline>
</glyph>
<glyph name="y" format="2">
  <advance width="306"/>
  <unicode hex="0079"/>
  <anchor x="153.0" y="493" name="top"/>
  <outline>
    <contour>
      <point x="296" y="493" type="line"/>
      <point x="165" y="-180" type="line"/>
      <point x="68" y="-180" type="line"/>
      <point x="106" y="2" type="line"/>
      <point x="10" y="493" type="line"/>
      <point x="108" y="493" type="line"/>
      <point x="154" y="177" type="line"/>
      <point x="199" y="493" type="line"/>
    </contour>
  </outline>
</glyph>
<glyph name="z" format="2">
  <advance width="264"/>
  <unicode hex="007A"/>
  <anchor x="132.0" y="493" name="top"/>
  <outline>
    <contour>
      <point x="245" y="428" type="line"/>
      <point x="121" y="85" type="line"/>
      <point x="244" y="85" type="line"/>
      <point x="244" y="0" type="line"/>
      <point x="17" y="0" type="line"/>
      <point x="17" y="65" type="line"/>
      <point x="140" y="408" type="line"/>
      <point x="24" y="408" type="line"/>
      <point x="24" y="493" type="line"/>
      <point x="245" y="493" type="line"/>
    </contour>
  </outline>
</glyph>
<glyph name="braceleft" format="2">
  <advance width="300"/>
  <unicode hex="007B"/>
  <outline>
    <contour>
      <point x="279" y="-121" type="line"/>
      <point x="209" y="-121" type="line" smooth="yes"/>
      <point x="134" y="-121"/>
      <point x="103" y="-81"/>
      <point x="103" y="-7" type="curve" smooth="yes"/>
      <point x="103" y="236" type="line"/>
      <point x="17" y="332" type="line"/>
      <point x="17" y="343" type="line"/>
      <point x="103" y="438" type="line"/>
      <point x="103" y="650" type="line" smooth="yes"/>
      <point x="103" y="724"/>
      <point x="134" y="764"/>
      <point x="209" y="764" type="curve" smooth="yes"/>
      <point x="279" y="764" type="line"/>
      <point x="279" y="673" type="line"/>
      <point x="233" y="673" type="line" smooth="yes"/>
      <point x="212" y="673"/>
      <point x="200" y="661"/>
      <point x="200" y="640" type="curve" smooth="yes"/>
      <point x="200" y="455" type="line" smooth="yes"/>
      <point x="200" y="415"/>
      <point x="197" y="408"/>
      <point x="171" y="383" type="curve" smooth="yes"/>
      <point x="123" y="337" type="line"/>
      <point x="171" y="291" type="line" smooth="yes"/>
      <point x="197" y="266"/>
      <point x="200" y="259"/>
      <point x="200" y="219" type="curve" smooth="yes"/>
      <point x="200" y="5" type="line" smooth="yes"/>
      <point x="200" y="-17"/>
      <point x="213" y="-30"/>
      <point x="235" y="-30" type="curve" smooth="yes"/>
      <point x="279" y="-30" type="line"/>
    </contour>
  </outline>
</glyph>
<glyph name="bar" format="2">
  <advance width="165"/>
  <unicode hex="007C"/>
  <outline>
    <contour>
      <point x="130" y="-175" type="line"/>
      <point x="35" y="-175" type="line"/>
      <point x="35" y="764" type="line"/>
      <point x="130" y="764" type="line"/>
    </contour>
  </outline>
</glyph>
<glyph name="braceright" format="2">
  <advance width="300"/>
  <unicode hex="007D"/>
  <outline>
    <contour>
      <point x="283" y="332" type="line"/>
      <point x="197" y="236" type="line"/>
      <point x="197" y="-7" type="line" smooth="yes"/>
      <point x="197" y="-81"/>
      <point x="165" y="-121"/>
      <point x="91" y="-121" type="curve" smooth="yes"/>
      <point x="20" y="-121" type="line"/>
      <point x="20" y="-30" type="line"/>
      <point x="64" y="-30" type="line" smooth="yes"/>
      <point x="87" y="-30"/>
      <point x="100" y="-17"/>
      <point x="100" y="5" type="curve" smooth="yes"/>
      <point x="100" y="219" type="line" smooth="yes"/>
      <point x="100" y="259"/>
      <point x="102" y="266"/>
      <point x="128" y="291" type="curve" smooth="yes"/>
      <point x="177" y="337" type="line"/>
      <point x="128" y="383" type="line" smooth="yes"/>
      <point x="102" y="408"/>
      <point x="100" y="415"/>
      <point x="100" y="455" type="curve" smooth="yes"/>
      <point x="100" y="640" type="line" smooth="yes"/>
      <point x="100" y="661"/>
      <point x="88" y="673"/>
      <point x="67" y="673" type="curve" smooth="yes"/>
      <point x="20" y="673" type="line"/>
      <point x="20" y="764" type="line"/>
      <point x="91" y="764" type="line" smooth="yes"/>
      <point x="165" y="764"/>
      <point x="197" y="724"/>
      <point x="197" y="650" type="curve" smooth="yes"/>
      <point x="197" y="438" type="line"/>
      <point x="283" y="343" type="line"/>
    </contour>
  </outline>
</glyph>
<glyph name="asciitilde" format="2">
  <advance width="400"/>
  <unicode hex="007E"/>
  <outline>
    <contour>
      <point x="365" y="264" type="line" smooth="yes"/>
      <point x="365" y="227"/>
      <point x="343" y="204"/>
      <point x="307" y="204" type="curve" smooth="yes"/>
      <point x="285" y="204"/>
      <point x="265" y="210"/>
      <point x="244" y="223" type="curve" smooth="yes"/>
      <point x="124" y="294" type="line"/>
      <point x="124" y="206" type="line"/>
      <point x="36" y="206" type="line"/>
      <point x="36" y="332" type="line" smooth="yes"/>
      <point x="36" y="367"/>
      <point x="57" y="392"/>
      <point x="94" y="392" type="curve" smooth="yes"/>
      <point x="115" y="392"/>
      <point x="136" y="385"/>
      <point x="156" y="373" type="curve" smooth="yes"/>
      <point x="276" y="302" type="line"/>
      <point x="276" y="389" type="line"/>
      <point x="365" y="389" type="line"/>
    </contour>
  </outline>
</glyph>
<glyph name="exclamdown" format="2">
  <advance width="172"/>
  <unicode hex="00A1"/>
  <outline>
    <contour>
      <point x="136" y="656" type="line"/>
      <point x="36" y="656" type="line"/>
      <point x="36" y="764" type="line"/>
      <point x="136" y="764" type="line"/>
    </contour>
    <contour>
      <point x="140" y="0" type="line"/>
      <point x="32" y="0" type="line"/>
      <point x="45" y="604" type="line"/>
      <point x="128" y="604" type="line"/>
    </contour>
  </outline>
</glyph>
<glyph name="cent" format="2">
  <advance width="307"/>
  <unicode hex="00A2"/>
  <outline>
    <contour>
      <point x="281" y="193" type="line" smooth="yes"/>
      <point x="281" y="157"/>
      <point x="263" y="140"/>
      <point x="227" y="140" type="curve" smooth="yes"/>
      <point x="196" y="140" type="line"/>
      <point x="196" y="0" type="line"/>
      <point x="111" y="0" type="line"/>
      <point x="111" y="140" type="line"/>
      <point x="81" y="140" type="line" smooth="yes"/>
      <point x="44" y="140"/>
      <point x="26" y="157"/>
      <point x="26" y="193" type="curve" smooth="yes"/>
      <point x="26" y="574" type="line" smooth="yes"/>
      <point x="26" y="610"/>
      <point x="44" y="627"/>
      <point x="81" y="627" type="curve" smooth="yes"/>
      <point x="111" y="627" type="line"/>
      <point x="111" y="764" type="line"/>
      <point x="196" y="764" type="line"/>
      <point x="196" y="627" type="line"/>
      <point x="227" y="627" type="line" smooth="yes"/>
      <point x="263" y="627"/>
      <point x="281" y="610"/>
      <point x="281" y="574" type="curve" smooth="yes"/>
      <point x="281" y="447" type="line"/>
      <point x="188" y="447" type="line"/>
      <point x="188" y="545" type="line"/>
      <point x="120" y="545" type="line"/>
      <point x="120" y="222" type="line"/>
      <point x="188" y="222" type="line"/>
      <point x="188" y="330" type="line"/>
      <point x="281" y="330" type="line"/>
    </contour>
  </outline>
</glyph>
<glyph name="sterling" format="2">
  <advance width="349"/>
  <unicode hex="00A3"/>
  <outline>
    <contour>
      <point x="328" y="0" type="line"/>
      <point x="17" y="0" type="line"/>
      <point x="17" y="88" type="line"/>
      <point x="55" y="88" type="line"/>
      <point x="55" y="322" type="line"/>
      <point x="17" y="322" type="line"/>
      <point x="17" y="410" type="line"/>
      <point x="55" y="410" type="line"/>
      <point x="55" y="699" type="line" smooth="yes"/>
      <point x="55" y="743"/>
      <point x="75" y="764"/>
      <point x="120" y="764" type="curve" smooth="yes"/>
      <point x="259" y="764" type="line" smooth="yes"/>
      <point x="303" y="764"/>
      <point x="324" y="744"/>
      <point x="324" y="699" type="curve" smooth="yes"/>
      <point x="324" y="529" type="line"/>
      <point x="228" y="529" type="line"/>
      <point x="228" y="676" type="line"/>
      <point x="150" y="676" type="line"/>
      <point x="150" y="410" type="line"/>
      <point x="257" y="410" type="line"/>
      <point x="257" y="322" type="line"/>
      <point x="150" y="322" type="line"/>
      <point x="150" y="88" type="line"/>
      <point x="328" y="88" type="line"/>
    </contour>
  </outline>
</glyph>
<glyph name="yen" format="2">
  <advance width="335"/>
  <unicode hex="00A5"/>
  <outline>
    <contour>
      <point x="326" y="761" type="line"/>
      <point x="259" y="468" type="line"/>
      <point x="318" y="468" type="line"/>
      <point x="318" y="385" type="line"/>
      <point x="240" y="385" type="line"/>
      <point x="225" y="321" type="line"/>
      <point x="314" y="321" type="line"/>
      <point x="314" y="237" type="line"/>
      <point x="216" y="237" type="line"/>
      <point x="216" y="0" type="line"/>
      <point x="117" y="0" type="line"/>
      <point x="117" y="237" type="line"/>
      <point x="16" y="237" type="line"/>
      <point x="16" y="321" type="line"/>
      <point x="108" y="321" type="line"/>
      <point x="94" y="385" type="line"/>
      <point x="16" y="385" type="line"/>
      <point x="16" y="468" type="line"/>
      <point x="75" y="468" type="line"/>
      <point x="8" y="761" type="line"/>
      <point x="8" y="764" type="line"/>
      <point x="108" y="764" type="line"/>
      <point x="167" y="443" type="line"/>
      <point x="226" y="764" type="line"/>
      <point x="326" y="764" type="line"/>
    </contour>
  </outline>
</glyph>
<glyph name="section" format="2">
  <advance width="338"/>
  <unicode hex="00A7"/>
  <outline>
    <contour>
      <point x="309" y="55" type="line" smooth="yes"/>
      <point x="309" y="18"/>
      <point x="291" y="0"/>
      <point x="254" y="0" type="curve" smooth="yes"/>
      <point x="85" y="0" type="line" smooth="yes"/>
      <point x="48" y="0"/>
      <point x="29" y="18"/>
      <point x="29" y="55" type="curve" smooth="yes"/>
      <point x="29" y="189" type="line"/>
      <point x="125" y="189" type="line"/>
      <point x="125" y="79" type="line"/>
      <point x="213" y="79" type="line"/>
      <point x="213" y="192" type="line"/>
      <point x="59" y="269" type="line" smooth="yes"/>
      <point x="35" y="281"/>
      <point x="29" y="291"/>
      <point x="29" y="318" type="curve" smooth="yes"/>
      <point x="29" y="417" type="line" smooth="yes"/>
      <point x="29" y="452"/>
      <point x="34" y="460"/>
      <point x="59" y="474" type="curve" smooth="yes"/>
      <point x="92" y="492" type="line"/>
      <point x="59" y="511" type="line" smooth="yes"/>
      <point x="35" y="525"/>
      <point x="29" y="533"/>
      <point x="29" y="567" type="curve" smooth="yes"/>
      <point x="29" y="709" type="line" smooth="yes"/>
      <point x="29" y="746"/>
      <point x="48" y="764"/>
      <point x="85" y="764" type="curve" smooth="yes"/>
      <point x="254" y="764" type="line" smooth="yes"/>
      <point x="291" y="764"/>
      <point x="309" y="746"/>
      <point x="309" y="709" type="curve" smooth="yes"/>
      <point x="309" y="580" type="line"/>
      <point x="213" y="580" type="line"/>
      <point x="213" y="685" type="line"/>
      <point x="125" y="685" type="line"/>
      <point x="125" y="572" type="line"/>
      <point x="279" y="496" type="line" smooth="yes"/>
      <point x="303" y="484"/>
      <point x="309" y="473"/>
      <point x="309" y="447" type="curve" smooth="yes"/>
      <point x="309" y="347" type="line" smooth="yes"/>
      <point x="309" y="313"/>
      <point x="303" y="305"/>
      <point x="279" y="291" type="curve" smooth="yes"/>
      <point x="246" y="272" type="line"/>
      <point x="279" y="254" type="line" smooth="yes"/>
      <point x="304" y="241"/>
      <point x="309" y="232"/>
      <point x="309" y="197" type="curve" smooth="yes"/>
    </contour>
    <contour>
      <point x="214" y="331" type="line"/>
      <point x="214" y="434" type="line"/>
      <point x="169" y="457" type="line"/>
      <point x="124" y="434" type="line"/>
      <point x="124" y="331" type="line"/>
      <point x="169" y="307" type="line"/>
    </contour>
  </outline>
</glyph>
<glyph name="dieresis" format="2">
  <advance width="311"/>
  <unicode hex="00A8"/>
  <outline>
    <contour>
      <point x="266" y="519" type="line"/>
      <point x="171" y="519" type="line"/>
      <point x="171" y="614" type="line"/>
      <point x="266" y="614" type="line"/>
    </contour>
    <contour>
      <point x="141" y="519" type="line"/>
      <point x="47" y="519" type="line"/>
      <point x="47" y="614" type="line"/>
      <point x="141" y="614" type="line"/>
    </contour>
  </outline>
</glyph>
<glyph name="copyright" format="2">
  <advance width="482"/>
  <unicode hex="00A9"/>
  <outline>
    <contour>
      <point x="452" y="44" type="line" smooth="yes"/>
      <point x="452" y="15"/>
      <point x="437" y="0"/>
      <point x="407" y="0" type="curve" smooth="yes"/>
      <point x="75" y="0" type="line" smooth="yes"/>
      <point x="45" y="0"/>
      <point x="30" y="15"/>
      <point x="30" y="44" type="curve" smooth="yes"/>
      <point x="30" y="720" type="line" smooth="yes"/>
      <point x="30" y="749"/>
      <point x="45" y="764"/>
      <point x="75" y="764" type="curve" smooth="yes"/>
      <point x="407" y="764" type="line" smooth="yes"/>
      <point x="437" y="764"/>
      <point x="452" y="749"/>
      <point x="452" y="720" type="curve" smooth="yes"/>
    </contour>
    <contour>
      <point x="405" y="47" type="line"/>
      <point x="405" y="717" type="line"/>
      <point x="78" y="717" type="line"/>
      <point x="78" y="47" type="line"/>
    </contour>
    <contour>
      <point x="334" y="214" type="line" smooth="yes"/>
      <point x="334" y="185"/>
      <point x="318" y="168"/>
      <point x="288" y="168" type="curve" smooth="yes"/>
      <point x="192" y="168" type="line" smooth="yes"/>
      <point x="162" y="168"/>
      <point x="146" y="185"/>
      <point x="146" y="214" type="curve" smooth="yes"/>
      <point x="146" y="552" type="line" smooth="yes"/>
      <point x="146" y="581"/>
      <point x="162" y="598"/>
      <point x="192" y="598" type="curve" smooth="yes"/>
      <point x="288" y="598" type="line" smooth="yes"/>
      <point x="318" y="598"/>
      <point x="334" y="581"/>
      <point x="334" y="552" type="curve" smooth="yes"/>
      <point x="334" y="445" type="line"/>
      <point x="263" y="445" type="line"/>
      <point x="263" y="533" type="line"/>
      <point x="217" y="533" type="line"/>
      <point x="217" y="234" type="line"/>
      <point x="263" y="234" type="line"/>
      <point x="263" y="323" type="line"/>
      <point x="334" y="323" type="line"/>
    </contour>
  </outline>
</glyph>
<glyph name="ordfeminine" format="2">
  <advance width="269"/>
  <unicode hex="00AA"/>
  <outline>
    <contour>
      <point x="241" y="369" type="line"/>
      <point x="162" y="369" type="line"/>
      <point x="162" y="381" type="line"/>
      <point x="100" y="372" type="line"/>
      <point x="88" y="369"/>
      <point x="79" y="368"/>
      <point x="70" y="368" type="curve" smooth="yes"/>
      <point x="41" y="368"/>
      <point x="28" y="382"/>
      <point x="28" y="410" type="curve" smooth="yes"/>
      <point x="28" y="563" type="line" smooth="yes"/>
      <point x="28" y="593"/>
      <point x="43" y="607"/>
      <point x="74" y="607" type="curve" smooth="yes"/>
      <point x="162" y="607" type="line"/>
      <point x="162" y="701" type="line"/>
      <point x="106" y="701" type="line"/>
      <point x="106" y="642" type="line"/>
      <point x="31" y="642" type="line"/>
      <point x="31" y="720" type="line" smooth="yes"/>
      <point x="31" y="750"/>
      <point x="46" y="764"/>
      <point x="77" y="764" type="curve" smooth="yes"/>
      <point x="195" y="764" type="line" smooth="yes"/>
      <point x="226" y="764"/>
      <point x="241" y="750"/>
      <point x="241" y="720" type="curve" smooth="yes"/>
    </contour>
    <contour>
      <point x="241" y="260" type="line"/>
      <point x="28" y="260" type="line"/>
      <point x="28" y="327" type="line"/>
      <point x="241" y="327" type="line"/>
    </contour>
    <contour>
      <point x="162" y="435" type="line"/>
      <point x="162" y="549" type="line"/>
      <point x="106" y="549" type="line"/>
      <point x="106" y="432" type="line"/>
    </contour>
  </outline>
</glyph>
<glyph name="guillemotleft" format="2">
  <advance width="421"/>
  <unicode hex="00AB"/>
  <outline>
    <contour>
      <point x="393" y="76" type="line"/>
      <point x="285" y="76" type="line"/>
      <point x="180" y="264" type="line"/>
      <point x="180" y="278" type="line"/>
      <point x="285" y="466" type="line"/>
      <point x="393" y="466" type="line"/>
      <point x="393" y="462" type="line"/>
      <point x="286" y="271" type="line"/>
      <point x="393" y="80" type="line"/>
    </contour>
    <contour>
      <point x="237" y="76" type="line"/>
      <point x="129" y="76" type="line"/>
      <point x="24" y="264" type="line"/>
      <point x="24" y="278" type="line"/>
      <point x="129" y="466" type="line"/>
      <point x="237" y="466" type="line"/>
      <point x="237" y="462" type="line"/>
      <point x="131" y="271" type="line"/>
      <point x="237" y="80" type="line"/>
    </contour>
  </outline>
</glyph>
<glyph name="registered" format="2">
  <advance width="482"/>
  <unicode hex="00AE"/>
  <outline>
    <contour>
      <point x="452" y="44" type="line" smooth="yes"/>
      <point x="452" y="15"/>
      <point x="437" y="0"/>
      <point x="407" y="0" type="curve" smooth="yes"/>
      <point x="75" y="0" type="line" smooth="yes"/>
      <point x="45" y="0"/>
      <point x="30" y="15"/>
      <point x="30" y="44" type="curve" smooth="yes"/>
      <point x="30" y="720" type="line" smooth="yes"/>
      <point x="30" y="749"/>
      <point x="45" y="764"/>
      <point x="75" y="764" type="curve" smooth="yes"/>
      <point x="407" y="764" type="line" smooth="yes"/>
      <point x="437" y="764"/>
      <point x="452" y="749"/>
      <point x="452" y="720" type="curve" smooth="yes"/>
    </contour>
    <contour>
      <point x="405" y="47" type="line"/>
      <point x="405" y="717" type="line"/>
      <point x="78" y="717" type="line"/>
      <point x="78" y="47" type="line"/>
    </contour>
    <contour>
      <point x="347" y="168" type="line"/>
      <point x="277" y="168" type="line"/>
      <point x="228" y="346" type="line"/>
      <point x="231" y="408" type="line"/>
      <point x="266" y="408" type="line"/>
      <point x="266" y="536" type="line"/>
      <point x="216" y="536" type="line"/>
      <point x="216" y="168" type="line"/>
      <point x="146" y="168" type="line"/>
      <point x="146" y="598" type="line"/>
      <point x="290" y="598" type="line" smooth="yes"/>
      <point x="320" y="598"/>
      <point x="335" y="581"/>
      <point x="335" y="552" type="curve" smooth="yes"/>
      <point x="335" y="396" type="line" smooth="yes"/>
      <point x="335" y="370"/>
      <point x="324" y="357"/>
      <point x="306" y="353" type="curve"/>
      <point x="295" y="352" type="line"/>
      <point x="347" y="173" type="line"/>
    </contour>
  </outline>
</glyph>
<glyph name="macron" format="2">
  <advance width="311"/>
  <unicode hex="00AF"/>
  <unicode hex="02C9"/>
  <outline>
    <contour>
      <point x="269" y="523" type="line"/>
      <point x="44" y="523" type="line"/>
      <point x="44" y="592" type="line"/>
      <point x="269" y="592" type="line"/>
    </contour>
  </outline>
</glyph>
<glyph name="degree" format="2">
  <advance width="269"/>
  <unicode hex="00B0"/>
  <outline>
    <contour>
      <point x="237" y="565" type="line" smooth="yes"/>
      <point x="237" y="529"/>
      <point x="220" y="512"/>
      <point x="185" y="512" type="curve" smooth="yes"/>
      <point x="84" y="512" type="line" smooth="yes"/>
      <point x="49" y="512"/>
      <point x="32" y="529"/>
      <point x="32" y="565" type="curve" smooth="yes"/>
      <point x="32" y="712" type="line" smooth="yes"/>
      <point x="32" y="748"/>
      <point x="49" y="764"/>
      <point x="84" y="764" type="curve" smooth="yes"/>
      <point x="185" y="764" type="line" smooth="yes"/>
      <point x="220" y="764"/>
      <point x="237" y="748"/>
      <point x="237" y="712" type="curve" smooth="yes"/>
    </contour>
    <contour>
      <point x="171" y="575" type="line"/>
      <point x="171" y="701" type="line"/>
      <point x="97" y="701" type="line"/>
      <point x="97" y="575" type="line"/>
    </contour>
  </outline>
</glyph>
<glyph name="acute" format="2">
  <advance width="311"/>
  <unicode hex="00B4"/>
  <outline>
    <contour>
      <point x="235" y="635" type="line"/>
      <point x="117" y="519" type="line"/>
      <point x="45" y="519" type="line"/>
      <point x="45" y="523" type="line"/>
      <point x="119" y="640" type="line"/>
      <point x="235" y="640" type="line"/>
    </contour>
  </outline>
</glyph>
<glyph name="paragraph" format="2">
  <advance width="383"/>
  <unicode hex="00B6"/>
  <outline>
    <contour>
      <point x="353" y="0" type="line"/>
      <point x="266" y="0" type="line"/>
      <point x="266" y="280" type="line"/>
      <point x="228" y="280" type="line"/>
      <point x="228" y="0" type="line"/>
      <point x="142" y="0" type="line"/>
      <point x="142" y="280" type="line"/>
      <point x="91" y="280" type="line" smooth="yes"/>
      <point x="47" y="280"/>
      <point x="27" y="300"/>
      <point x="27" y="344" type="curve" smooth="yes"/>
      <point x="27" y="699" type="line" smooth="yes"/>
      <point x="27" y="744"/>
      <point x="47" y="764"/>
      <point x="91" y="764" type="curve" smooth="yes"/>
      <point x="353" y="764" type="line"/>
    </contour>
    <contour>
      <point x="266" y="372" type="line"/>
      <point x="266" y="672" type="line"/>
      <point x="191" y="672" type="line"/>
      <point x="191" y="372" type="line"/>
    </contour>
  </outline>
</glyph>
<glyph name="periodcentered" format="2">
  <advance width="169"/>
  <unicode hex="00B7"/>
  <unicode hex="2219"/>
  <outline>
    <contour>
      <point x="143" y="240" type="line"/>
      <point x="26" y="240" type="line"/>
      <point x="26" y="361" type="line"/>
      <point x="143" y="361" type="line"/>
    </contour>
  </outline>
</glyph>
<glyph name="cedilla" format="2">
  <advance width="311"/>
  <unicode hex="00B8"/>
  <outline>
    <contour>
      <point x="248" y="-125" type="line" smooth="yes"/>
      <point x="248" y="-157"/>
      <point x="233" y="-171"/>
      <point x="202" y="-171" type="curve" smooth="yes"/>
      <point x="108" y="-171" type="line" smooth="yes"/>
      <point x="77" y="-171"/>
      <point x="62" y="-157"/>
      <point x="62" y="-125" type="curve" smooth="yes"/>
      <point x="62" y="-80" type="line"/>
      <point x="127" y="-80" type="line"/>
      <point x="127" y="-117" type="line"/>
      <point x="184" y="-117" type="line"/>
      <point x="184" y="-82" type="line"/>
      <point x="148" y="-63" type="line" smooth="yes"/>
      <point x="128" y="-53"/>
      <point x="123" y="-43"/>
      <point x="123" y="-19" type="curve" smooth="yes"/>
      <point x="123" y="10" type="line"/>
      <point x="184" y="10" type="line"/>
      <point x="184" y="-16" type="line"/>
      <point x="224" y="-39" type="line" smooth="yes"/>
      <point x="245" y="-51"/>
      <point x="248" y="-59"/>
      <point x="248" y="-85" type="curve" smooth="yes"/>
    </contour>
  </outline>
</glyph>
<glyph name="ordmasculine" format="2">
  <advance width="270"/>
  <unicode hex="00BA"/>
  <outline>
    <contour>
      <point x="242" y="413" type="line" smooth="yes"/>
      <point x="242" y="383"/>
      <point x="227" y="369"/>
      <point x="196" y="369" type="curve" smooth="yes"/>
      <point x="75" y="369" type="line" smooth="yes"/>
      <point x="43" y="369"/>
      <point x="28" y="383"/>
      <point x="28" y="413" type="curve" smooth="yes"/>
      <point x="28" y="720" type="line" smooth="yes"/>
      <point x="28" y="750"/>
      <point x="43" y="764"/>
      <point x="75" y="764" type="curve" smooth="yes"/>
      <point x="196" y="764" type="line" smooth="yes"/>
      <point x="227" y="764"/>
      <point x="242" y="750"/>
      <point x="242" y="720" type="curve" smooth="yes"/>
    </contour>
    <contour>
      <point x="242" y="260" type="line"/>
      <point x="28" y="260" type="line"/>
      <point x="28" y="327" type="line"/>
      <point x="242" y="327" type="line"/>
    </contour>
    <contour>
      <point x="164" y="435" type="line"/>
      <point x="164" y="698" type="line"/>
      <point x="106" y="698" type="line"/>
      <point x="106" y="435" type="line"/>
    </contour>
  </outline>
</glyph>
<glyph name="guillemotright" format="2">
  <advance width="421"/>
  <unicode hex="00BB"/>
  <outline>
    <contour>
      <point x="397" y="264" type="line"/>
      <point x="292" y="76" type="line"/>
      <point x="184" y="76" type="line"/>
      <point x="184" y="80" type="line"/>
      <point x="290" y="271" type="line"/>
      <point x="184" y="462" type="line"/>
      <point x="184" y="466" type="line"/>
      <point x="292" y="466" type="line"/>
      <point x="397" y="278" type="line"/>
    </contour>
    <contour>
      <point x="242" y="264" type="line"/>
      <point x="136" y="76" type="line"/>
      <point x="28" y="76" type="line"/>
      <point x="28" y="80" type="line"/>
      <point x="135" y="271" type="line"/>
      <point x="28" y="462" type="line"/>
      <point x="28" y="466" type="line"/>
      <point x="136" y="466" type="line"/>
      <point x="242" y="278" type="line"/>
    </contour>
  </outline>
</glyph>
<glyph name="questiondown" format="2">
  <advance width="327"/>
  <unicode hex="00BF"/>
  <outline>
    <contour>
      <point x="223" y="656" type="line"/>
      <point x="122" y="656" type="line"/>
      <point x="122" y="764" type="line"/>
      <point x="223" y="764" type="line"/>
    </contour>
    <contour>
      <point x="303" y="65" type="line" smooth="yes"/>
      <point x="303" y="21"/>
      <point x="282" y="0"/>
      <point x="238" y="0" type="curve" smooth="yes"/>
      <point x="90" y="0" type="line" smooth="yes"/>
      <point x="47" y="0"/>
      <point x="26" y="21"/>
      <point x="26" y="65" type="curve" smooth="yes"/>
      <point x="26" y="227" type="line" smooth="yes"/>
      <point x="26" y="257"/>
      <point x="28" y="266"/>
      <point x="41" y="290" type="curve" smooth="yes"/>
      <point x="124" y="446" type="line"/>
      <point x="124" y="604" type="line"/>
      <point x="220" y="604" type="line"/>
      <point x="220" y="466" type="line" smooth="yes"/>
      <point x="220" y="435"/>
      <point x="219" y="425"/>
      <point x="206" y="401" type="curve" smooth="yes"/>
      <point x="122" y="245" type="line"/>
      <point x="122" y="87" type="line"/>
      <point x="206" y="87" type="line"/>
      <point x="206" y="235" type="line"/>
      <point x="303" y="235" type="line"/>
    </contour>
  </outline>
</glyph>
<glyph name="Aring" format="2">
  <advance width="344"/>
  <unicode hex="00C5"/>
  <outline>
    <contour>
      <point x="330" y="0" type="line"/>
      <point x="234" y="0" type="line"/>
      <point x="219" y="147" type="line"/>
      <point x="124" y="147" type="line"/>
      <point x="109" y="0" type="line"/>
      <point x="14" y="0" type="line"/>
      <point x="14" y="2" type="line"/>
      <point x="111" y="714" type="line"/>
      <point x="104" y="714" type="line"/>
      <point x="86" y="720"/>
      <point x="76" y="734"/>
      <point x="76" y="759" type="curve" smooth="yes"/>
      <point x="76" y="843" type="line" smooth="yes"/>
      <point x="76" y="875"/>
      <point x="92" y="891"/>
      <point x="124" y="891" type="curve" smooth="yes"/>
      <point x="219" y="891" type="line" smooth="yes"/>
      <point x="251" y="891"/>
      <point x="267" y="875"/>
      <point x="267" y="843" type="curve" smooth="yes"/>
      <point x="267" y="759" type="line" smooth="yes"/>
      <point x="267" y="734"/>
      <point x="258" y="719"/>
      <point x="239" y="714" type="curve"/>
      <point x="233" y="714" type="line"/>
      <point x="330" y="2" type="line"/>
    </contour>
    <contour>
      <point x="202" y="770" type="line"/>
      <point x="202" y="832" type="line"/>
      <point x="141" y="832" type="line"/>
      <point x="141" y="770" type="line"/>
    </contour>
    <contour>
      <point x="209" y="237" type="line"/>
      <point x="171" y="591" type="line"/>
      <point x="134" y="237" type="line"/>
    </contour>
  </outline>
</glyph>
<glyph name="AE" format="2">
  <advance width="458"/>
  <unicode hex="00C6"/>
  <outline>
    <contour>
      <point x="438" y="0" type="line"/>
      <point x="213" y="0" type="line"/>
      <point x="213" y="147" type="line"/>
      <point x="130" y="147" type="line"/>
      <point x="103" y="0" type="line"/>
      <point x="8" y="0" type="line"/>
      <point x="8" y="2" type="line"/>
      <point x="169" y="764" type="line"/>
      <point x="436" y="764" type="line"/>
      <point x="436" y="672" type="line"/>
      <point x="308" y="672" type="line"/>
      <point x="308" y="440" type="line"/>
      <point x="421" y="440" type="line"/>
      <point x="421" y="348" type="line"/>
      <point x="308" y="348" type="line"/>
      <point x="308" y="92" type="line"/>
      <point x="438" y="92" type="line"/>
    </contour>
    <contour>
      <point x="213" y="237" type="line"/>
      <point x="213" y="604" type="line"/>
      <point x="147" y="237" type="line"/>
    </contour>
  </outline>
</glyph>
<glyph name="Ccedilla" format="2">
  <advance width="347"/>
  <unicode hex="00C7"/>
  <outline>
    <contour>
      <point x="318" y="65" type="line" smooth="yes"/>
      <point x="318" y="21"/>
      <point x="297" y="0"/>
      <point x="253" y="0" type="curve" smooth="yes"/>
      <point x="204" y="0" type="line"/>
      <point x="204" y="-16" type="line"/>
      <point x="243" y="-39" type="line" smooth="yes"/>
      <point x="263" y="-51"/>
      <point x="268" y="-59"/>
      <point x="268" y="-85" type="curve" smooth="yes"/>
      <point x="268" y="-125" type="line" smooth="yes"/>
      <point x="268" y="-157"/>
      <point x="253" y="-171"/>
      <point x="221" y="-171" type="curve" smooth="yes"/>
      <point x="128" y="-171" type="line" smooth="yes"/>
      <point x="97" y="-171"/>
      <point x="82" y="-157"/>
      <point x="82" y="-125" type="curve" smooth="yes"/>
      <point x="82" y="-80" type="line"/>
      <point x="146" y="-80" type="line"/>
      <point x="146" y="-117" type="line"/>
      <point x="203" y="-117" type="line"/>
      <point x="203" y="-82" type="line"/>
      <point x="167" y="-63" type="line" smooth="yes"/>
      <point x="147" y="-53"/>
      <point x="142" y="-43"/>
      <point x="142" y="-19" type="curve" smooth="yes"/>
      <point x="142" y="0" type="line"/>
      <point x="94" y="0" type="line" smooth="yes"/>
      <point x="51" y="0"/>
      <point x="31" y="21"/>
      <point x="31" y="65" type="curve" smooth="yes"/>
      <point x="31" y="699" type="line" smooth="yes"/>
      <point x="31" y="743"/>
      <point x="51" y="764"/>
      <point x="94" y="764" type="curve" smooth="yes"/>
      <point x="253" y="764" type="line" smooth="yes"/>
      <point x="297" y="764"/>
      <point x="318" y="743"/>
      <point x="318" y="699" type="curve" smooth="yes"/>
      <point x="318" y="518" type="line"/>
      <point x="220" y="518" type="line"/>
      <point x="220" y="676" type="line"/>
      <point x="128" y="676" type="line"/>
      <point x="128" y="88" type="line"/>
      <point x="220" y="88" type="line"/>
      <point x="220" y="256" type="line"/>
      <point x="318" y="256" type="line"/>
    </contour>
  </outline>
</glyph>
<glyph name="Eth" format="2">
  <advance width="359"/>
  <unicode hex="00D0"/>
  <outline>
    <contour>
      <point x="329" y="107" type="line" smooth="yes"/>
      <point x="329" y="40"/>
      <point x="290" y="0"/>
      <point x="221" y="0" type="curve" smooth="yes"/>
      <point x="39" y="0" type="line"/>
      <point x="39" y="340" type="line"/>
      <point x="11" y="340" type="line"/>
      <point x="11" y="434" type="line"/>
      <point x="39" y="434" type="line"/>
      <point x="39" y="764" type="line"/>
      <point x="221" y="764" type="line" smooth="yes"/>
      <point x="291" y="764"/>
      <point x="329" y="723"/>
      <point x="329" y="656" type="curve" smooth="yes"/>
    </contour>
    <contour>
      <point x="231" y="130" type="curve" smooth="yes"/>
      <point x="231" y="635" type="line" smooth="yes"/>
      <point x="231" y="661"/>
      <point x="216" y="675"/>
      <point x="189" y="675" type="curve" smooth="yes"/>
      <point x="137" y="675" type="line"/>
      <point x="137" y="434" type="line"/>
      <point x="178" y="434" type="line"/>
      <point x="178" y="340" type="line"/>
      <point x="137" y="340" type="line"/>
      <point x="137" y="89" type="line"/>
      <point x="188" y="89" type="line" smooth="yes"/>
      <point x="217" y="89"/>
      <point x="231" y="104"/>
    </contour>
  </outline>
</glyph>
<glyph name="Oslash" format="2">
  <advance width="355"/>
  <unicode hex="00D8"/>
  <anchor x="177.5" y="764" name="top"/>
  <outline>
    <contour>
      <point x="324" y="65" type="line" smooth="yes"/>
      <point x="324" y="21"/>
      <point x="304" y="0"/>
      <point x="260" y="0" type="curve" smooth="yes"/>
      <point x="155" y="0" type="line"/>
      <point x="140" y="-75" type="line"/>
      <point x="42" y="-75" type="line"/>
      <point x="42" y="-69" type="line"/>
      <point x="57" y="8" type="line"/>
      <point x="39" y="18"/>
      <point x="31" y="36"/>
      <point x="31" y="65" type="curve" smooth="yes"/>
      <point x="31" y="699" type="line" smooth="yes"/>
      <point x="31" y="743"/>
      <point x="51" y="764"/>
      <point x="94" y="764" type="curve" smooth="yes"/>
      <point x="208" y="764" type="line"/>
      <point x="223" y="839" type="line"/>
      <point x="322" y="839" type="line"/>
      <point x="322" y="833" type="line"/>
      <point x="306" y="750" type="line"/>
      <point x="318" y="740"/>
      <point x="324" y="722"/>
      <point x="324" y="699" type="curve" smooth="yes"/>
    </contour>
    <contour>
      <point x="226" y="88" type="line"/>
      <point x="226" y="676" type="line"/>
      <point x="128" y="676" type="line"/>
      <point x="128" y="88" type="line"/>
    </contour>
  </outline>
</glyph>
<glyph name="Thorn" format="2">
  <advance width="343"/>
  <unicode hex="00DE"/>
  <outline>
    <contour>
      <point x="317" y="212" type="line" smooth="yes"/>
      <point x="317" y="163"/>
      <point x="298" y="143"/>
      <point x="248" y="143" type="curve" smooth="yes"/>
      <point x="128" y="143" type="line"/>
      <point x="128" y="0" type="line"/>
      <point x="31" y="0" type="line"/>
      <point x="31" y="764" type="line"/>
      <point x="128" y="764" type="line"/>
      <point x="128" y="629" type="line"/>
      <point x="248" y="629" type="line" smooth="yes"/>
      <point x="298" y="629"/>
      <point x="317" y="610"/>
      <point x="317" y="559" type="curve" smooth="yes"/>
    </contour>
    <contour>
      <point x="219" y="231" type="line"/>
      <point x="219" y="540" type="line"/>
      <point x="128" y="540" type="line"/>
      <point x="128" y="231" type="line"/>
    </contour>
  </outline>
</glyph>
<glyph name="germandbls" format="2">
  <advance width="317"/>
  <unicode hex="00DF"/>
  <outline>
    <contour>
      <point x="290" y="64" type="line" smooth="yes"/>
      <point x="290" y="19"/>
      <point x="271" y="0"/>
      <point x="226" y="0" type="curve" smooth="yes"/>
      <point x="152" y="0" type="line"/>
      <point x="152" y="80" type="line"/>
      <point x="194" y="80" type="line"/>
      <point x="194" y="326" type="line"/>
      <point x="145" y="382" type="line"/>
      <point x="145" y="418" type="line"/>
      <point x="193" y="472" type="line"/>
      <point x="193" y="650" type="line" smooth="yes"/>
      <point x="193" y="670"/>
      <point x="185" y="678"/>
      <point x="165" y="678" type="curve" smooth="yes"/>
      <point x="123" y="678" type="line"/>
      <point x="123" y="0" type="line"/>
      <point x="26" y="0" type="line"/>
      <point x="26" y="764" type="line"/>
      <point x="183" y="764" type="line" smooth="yes"/>
      <point x="258" y="764"/>
      <point x="289" y="730"/>
      <point x="289" y="656" type="curve" smooth="yes"/>
      <point x="289" y="503" type="line" smooth="yes"/>
      <point x="289" y="469"/>
      <point x="287" y="459"/>
      <point x="264" y="434" type="curve" smooth="yes"/>
      <point x="232" y="399" type="line"/>
      <point x="266" y="365" type="line" smooth="yes"/>
      <point x="286" y="345"/>
      <point x="290" y="331"/>
      <point x="290" y="297" type="curve" smooth="yes"/>
    </contour>
  </outline>
</glyph>
<glyph name="ae" format="2">
  <advance width="456"/>
  <unicode hex="00E6"/>
  <anchor x="228.0" y="493" name="top"/>
  <outline>
    <contour>
      <point x="429" y="54" type="line" smooth="yes"/>
      <point x="429" y="18"/>
      <point x="412" y="0"/>
      <point x="376" y="0" type="curve" smooth="yes"/>
      <point x="237" y="0" type="line" smooth="yes"/>
      <point x="216" y="0"/>
      <point x="203" y="6"/>
      <point x="195" y="16" type="curve"/>
      <point x="110" y="3" type="line" smooth="yes"/>
      <point x="97" y="1"/>
      <point x="86" y="-2"/>
      <point x="76" y="-2" type="curve" smooth="yes"/>
      <point x="41" y="-2"/>
      <point x="25" y="16"/>
      <point x="25" y="51" type="curve" smooth="yes"/>
      <point x="25" y="242" type="line" smooth="yes"/>
      <point x="25" y="279"/>
      <point x="43" y="296"/>
      <point x="80" y="296" type="curve" smooth="yes"/>
      <point x="184" y="296" type="line"/>
      <point x="184" y="416" type="line"/>
      <point x="118" y="416" type="line"/>
      <point x="118" y="338" type="line"/>
      <point x="29" y="338" type="line"/>
      <point x="29" y="439" type="line" smooth="yes"/>
      <point x="29" y="475"/>
      <point x="47" y="493"/>
      <point x="84" y="493" type="curve" smooth="yes"/>
      <point x="376" y="493" type="line" smooth="yes"/>
      <point x="412" y="493"/>
      <point x="429" y="475"/>
      <point x="429" y="439" type="curve" smooth="yes"/>
      <point x="429" y="254" type="line"/>
      <point x="401" y="226" type="line"/>
      <point x="272" y="226" type="line"/>
      <point x="272" y="77" type="line"/>
      <point x="337" y="77" type="line"/>
      <point x="337" y="176" type="line"/>
      <point x="429" y="176" type="line"/>
    </contour>
    <contour>
      <point x="337" y="295" type="line"/>
      <point x="337" y="416" type="line"/>
      <point x="272" y="416" type="line"/>
      <point x="272" y="295" type="line"/>
    </contour>
    <contour>
      <point x="184" y="80" type="line"/>
      <point x="184" y="226" type="line"/>
      <point x="118" y="226" type="line"/>
      <point x="118" y="77" type="line"/>
    </contour>
  </outline>
</glyph>
<glyph name="ccedilla" format="2">
  <advance width="307"/>
  <unicode hex="00E7"/>
  <outline>
    <contour>
      <point x="281" y="54" type="line" smooth="yes"/>
      <point x="281" y="18"/>
      <point x="263" y="0"/>
      <point x="227" y="0" type="curve" smooth="yes"/>
      <point x="184" y="0" type="line"/>
      <point x="184" y="-16" type="line"/>
      <point x="223" y="-39" type="line" smooth="yes"/>
      <point x="243" y="-51"/>
      <point x="248" y="-59"/>
      <point x="248" y="-85" type="curve" smooth="yes"/>
      <point x="248" y="-125" type="line" smooth="yes"/>
      <point x="248" y="-157"/>
      <point x="233" y="-171"/>
      <point x="202" y="-171" type="curve" smooth="yes"/>
      <point x="108" y="-171" type="line" smooth="yes"/>
      <point x="77" y="-171"/>
      <point x="62" y="-157"/>
      <point x="62" y="-125" type="curve" smooth="yes"/>
      <point x="62" y="-80" type="line"/>
      <point x="126" y="-80" type="line"/>
      <point x="126" y="-117" type="line"/>
      <point x="183" y="-117" type="line"/>
      <point x="183" y="-82" type="line"/>
      <point x="148" y="-63" type="line" smooth="yes"/>
      <point x="128" y="-52"/>
      <point x="122" y="-43"/>
      <point x="122" y="-19" type="curve" smooth="yes"/>
      <point x="122" y="0" type="line"/>
      <point x="81" y="0" type="line" smooth="yes"/>
      <point x="44" y="0"/>
      <point x="26" y="18"/>
      <point x="26" y="54" type="curve" smooth="yes"/>
      <point x="26" y="439" type="line" smooth="yes"/>
      <point x="26" y="475"/>
      <point x="44" y="493"/>
      <point x="81" y="493" type="curve" smooth="yes"/>
      <point x="227" y="493" type="line" smooth="yes"/>
      <point x="263" y="493"/>
      <point x="281" y="475"/>
      <point x="281" y="439" type="curve" smooth="yes"/>
      <point x="281" y="312" type="line"/>
      <point x="188" y="312" type="line"/>
      <point x="188" y="411" type="line"/>
      <point x="120" y="411" type="line"/>
      <point x="120" y="82" type="line"/>
      <point x="188" y="82" type="line"/>
      <point x="188" y="191" type="line"/>
      <point x="281" y="191" type="line"/>
    </contour>
  </outline>
</glyph>
<glyph name="eth" format="2">
  <advance width="313"/>
  <unicode hex="00F0"/>
  <outline>
    <contour>
      <point x="321" y="588" type="line"/>
      <point x="288" y="576" type="line"/>
      <point x="288" y="54" type="line" smooth="yes"/>
      <point x="288" y="18"/>
      <point x="270" y="0"/>
      <point x="234" y="0" type="curve" smooth="yes"/>
      <point x="81" y="0" type="line" smooth="yes"/>
      <point x="45" y="0"/>
      <point x="26" y="18"/>
      <point x="26" y="54" type="curve" smooth="yes"/>
      <point x="26" y="440" type="line" smooth="yes"/>
      <point x="26" y="476"/>
      <point x="44" y="493"/>
      <point x="81" y="493" type="curve" smooth="yes"/>
      <point x="193" y="493" type="line"/>
      <point x="193" y="542" type="line"/>
      <point x="169" y="534" type="line"/>
      <point x="166" y="534" type="line"/>
      <point x="166" y="619" type="line"/>
      <point x="193" y="628" type="line"/>
      <point x="193" y="687" type="line"/>
      <point x="123" y="687" type="line"/>
      <point x="123" y="604" type="line"/>
      <point x="28" y="604" type="line"/>
      <point x="28" y="710" type="line" smooth="yes"/>
      <point x="28" y="746"/>
      <point x="46" y="764"/>
      <point x="82" y="764" type="curve" smooth="yes"/>
      <point x="234" y="764" type="line" smooth="yes"/>
      <point x="270" y="764"/>
      <point x="288" y="746"/>
      <point x="288" y="710" type="curve" smooth="yes"/>
      <point x="288" y="661" type="line"/>
      <point x="318" y="672" type="line"/>
      <point x="321" y="672" type="line"/>
    </contour>
    <contour>
      <point x="193" y="80" type="line"/>
      <point x="193" y="413" type="line"/>
      <point x="122" y="413" type="line"/>
      <point x="122" y="80" type="line"/>
    </contour>
  </outline>
</glyph>
<glyph name="oslash" format="2">
  <advance width="310"/>
  <unicode hex="00F8"/>
  <anchor x="155.0" y="493" name="top"/>
  <outline>
    <contour>
      <point x="284" y="54" type="line" smooth="yes"/>
      <point x="284" y="18"/>
      <point x="266" y="0"/>
      <point x="230" y="0" type="curve" smooth="yes"/>
      <point x="144" y="0" type="line"/>
      <point x="125" y="-75" type="line"/>
      <point x="32" y="-75" type="line"/>
      <point x="32" y="-69" type="line"/>
      <point x="50" y="6" type="line"/>
      <point x="34" y="14"/>
      <point x="26" y="30"/>
      <point x="26" y="54" type="curve" smooth="yes"/>
      <point x="26" y="439" type="line" smooth="yes"/>
      <point x="26" y="475"/>
      <point x="44" y="493"/>
      <point x="81" y="493" type="curve" smooth="yes"/>
      <point x="168" y="493" type="line"/>
      <point x="186" y="568" type="line"/>
      <point x="280" y="568" type="line"/>
      <point x="280" y="562" type="line"/>
      <point x="262" y="486" type="line"/>
      <point x="276" y="478"/>
      <point x="284" y="462"/>
      <point x="284" y="439" type="curve" smooth="yes"/>
    </contour>
    <contour>
      <point x="191" y="82" type="line"/>
      <point x="191" y="411" type="line"/>
      <point x="120" y="411" type="line"/>
      <point x="120" y="82" type="line"/>
    </contour>
  </outline>
</glyph>
<glyph name="thorn" format="2">
  <advance width="314"/>
  <unicode hex="00FE"/>
  <outline>
    <contour>
      <point x="288" y="83" type="line" smooth="yes"/>
      <point x="288" y="31"/>
      <point x="258" y="0"/>
      <point x="203" y="0" type="curve" smooth="yes"/>
      <point x="122" y="0" type="line"/>
      <point x="122" y="-180" type="line"/>
      <point x="26" y="-180" type="line"/>
      <point x="26" y="764" type="line"/>
      <point x="122" y="764" type="line"/>
      <point x="122" y="478" type="line"/>
      <point x="202" y="490" type="line"/>
      <point x="213" y="493"/>
      <point x="227" y="495"/>
      <point x="237" y="495" type="curve" smooth="yes"/>
      <point x="272" y="495"/>
      <point x="288" y="476"/>
      <point x="288" y="442" type="curve" smooth="yes"/>
    </contour>
    <contour>
      <point x="192" y="107" type="curve" smooth="yes"/>
      <point x="192" y="411" type="line"/>
      <point x="122" y="409" type="line"/>
      <point x="122" y="82" type="line"/>
      <point x="168" y="82" type="line" smooth="yes"/>
      <point x="186" y="82"/>
      <point x="192" y="90"/>
    </contour>
  </outline>
</glyph>
<glyph name="dcroat" format="2">
  <advance width="377"/>
  <unicode hex="0111"/>
  <outline>
    <contour>
      <point x="368" y="578" type="line"/>
      <point x="140" y="578" type="line"/>
      <point x="140" y="640" type="line"/>
      <point x="368" y="640" type="line"/>
    </contour>
    <component base="d"/>
  </outline>
</glyph>
<glyph name="dotlessi" format="2">
  <advance width="150"/>
  <unicode hex="0131"/>
  <anchor x="75.0" y="493" name="top"/>
  <outline>
    <contour>
      <point x="123" y="0" type="line"/>
      <point x="28" y="0" type="line"/>
      <point x="28" y="493" type="line"/>
      <point x="123" y="493" type="line"/>
    </contour>
  </outline>
</glyph>
<glyph name="Lslash" format="2">
  <advance width="280"/>
  <unicode hex="0141"/>
  <outline>
    <contour>
      <point x="264" y="0" type="line"/>
      <point x="44" y="0" type="line"/>
      <point x="44" y="250" type="line"/>
      <point x="17" y="229" type="line"/>
      <point x="11" y="229" type="line"/>
      <point x="11" y="327" type="line"/>
      <point x="44" y="352" type="line"/>
      <point x="44" y="764" type="line"/>
      <point x="141" y="764" type="line"/>
      <point x="141" y="431" type="line"/>
      <point x="193" y="470" type="line"/>
      <point x="199" y="470" type="line"/>
      <point x="199" y="372" type="line"/>
      <point x="141" y="329" type="line"/>
      <point x="141" y="93" type="line"/>
      <point x="264" y="93" type="line"/>
    </contour>
  </outline>
</glyph>
<glyph name="lslash" format="2">
  <advance width="194"/>
  <unicode hex="0142"/>
  <outline>
    <contour>
      <point x="183" y="348" type="line"/>
      <point x="143" y="317" type="line"/>
      <point x="143" y="0" type="line"/>
      <point x="47" y="0" type="line"/>
      <point x="47" y="243" type="line"/>
      <point x="17" y="220" type="line"/>
      <point x="11" y="220" type="line"/>
      <point x="11" y="315" type="line"/>
      <point x="47" y="343" type="line"/>
      <point x="47" y="764" type="line"/>
      <point x="143" y="764" type="line"/>
      <point x="143" y="416" type="line"/>
      <point x="178" y="443" type="line"/>
      <point x="183" y="443" type="line"/>
    </contour>
  </outline>
</glyph>
<glyph name="OE" format="2">
  <advance width="461"/>
  <unicode hex="0152"/>
  <outline>
    <contour>
      <point x="441" y="0" type="line"/>
      <point x="95" y="0" type="line" smooth="yes"/>
      <point x="51" y="0"/>
      <point x="31" y="21"/>
      <point x="31" y="65" type="curve" smooth="yes"/>
      <point x="31" y="699" type="line" smooth="yes"/>
      <point x="31" y="743"/>
      <point x="51" y="764"/>
      <point x="95" y="764" type="curve" smooth="yes"/>
      <point x="438" y="764" type="line"/>
      <point x="438" y="672" type="line"/>
      <point x="311" y="672" type="line"/>
      <point x="311" y="440" type="line"/>
      <point x="424" y="440" type="line"/>
      <point x="424" y="348" type="line"/>
      <point x="311" y="348" type="line"/>
      <point x="311" y="92" type="line"/>
      <point x="441" y="92" type="line"/>
    </contour>
    <contour>
      <point x="216" y="88" type="line"/>
      <point x="216" y="676" type="line"/>
      <point x="128" y="676" type="line"/>
      <point x="128" y="88" type="line"/>
    </contour>
  </outline>
</glyph>
<glyph name="oe" format="2">
  <advance width="460"/>
  <unicode hex="0153"/>
  <outline>
    <contour>
      <point x="433" y="54" type="line" smooth="yes"/>
      <point x="433" y="18"/>
      <point x="415" y="0"/>
      <point x="380" y="0" type="curve" smooth="yes"/>
      <point x="81" y="0" type="line" smooth="yes"/>
      <point x="44" y="0"/>
      <point x="26" y="18"/>
      <point x="26" y="54" type="curve" smooth="yes"/>
      <point x="26" y="439" type="line" smooth="yes"/>
      <point x="26" y="475"/>
      <point x="44" y="493"/>
      <point x="81" y="493" type="curve" smooth="yes"/>
      <point x="380" y="493" type="line" smooth="yes"/>
      <point x="415" y="493"/>
      <point x="433" y="475"/>
      <point x="433" y="439" type="curve" smooth="yes"/>
      <point x="433" y="251" type="line"/>
      <point x="405" y="222" type="line"/>
      <point x="275" y="222" type="line"/>
      <point x="275" y="77" type="line"/>
      <point x="341" y="77" type="line"/>
      <point x="341" y="176" type="line"/>
      <point x="433" y="176" type="line"/>
    </contour>
    <contour>
      <point x="341" y="292" type="line"/>
      <point x="341" y="416" type="line"/>
      <point x="275" y="416" type="line"/>
      <point x="275" y="292" type="line"/>
    </contour>
    <contour>
      <point x="187" y="81" type="line"/>
      <point x="187" y="412" type="line"/>
      <point x="120" y="412" type="line"/>
      <point x="120" y="81" type="line"/>
    </contour>
  </outline>
</glyph>
<glyph name="tbar" format="2">
  <advance width="254"/>
  <unicode hex="0167"/>
  <outline>
    <contour>
      <point x="132" y="0" type="line" smooth="yes"/>
      <point x="94.47999999999999" y="0.0"/>
      <point x="77.0" y="17.479999999999997"/>
      <point x="77" y="55" type="curve" smooth="yes"/>
      <point x="77" y="415" type="line"/>
      <point x="20" y="415" type="line"/>
      <point x="20" y="475" type="line"/>
      <point x="77" y="475" type="line"/>
      <point x="77" y="623" type="line"/>
      <point x="141" y="623" type="line"/>
      <point x="141" y="475" type="line"/>
      <point x="224" y="475" type="line"/>
      <point x="224" y="415" type="line"/>
      <point x="141" y="415" type="line"/>
      <point x="141" y="60" type="line"/>
      <point x="141.0" y="60.0"/>
      <point x="141.0" y="60.0"/>
      <point x="141" y="60" type="curve"/>
      <point x="224" y="60" type="line"/>
      <point x="224" y="0" type="line"/>
    </contour>
    <contour>
      <point x="226" y="212" type="line"/>
      <point x="20" y="212" type="line"/>
      <point x="20" y="273" type="line"/>
      <point x="226" y="273" type="line"/>
    </contour>
  </outline>
</glyph>
<glyph name="florin" format="2">
  <advance width="289"/>
  <unicode hex="0192"/>
  <outline>
    <contour>
      <point x="285" y="764" type="line"/>
      <point x="274" y="675" type="line"/>
      <point x="208" y="675" type="line"/>
      <point x="186" y="493" type="line"/>
      <point x="241" y="493" type="line"/>
      <point x="230" y="405" type="line"/>
      <point x="174" y="405" type="line"/>
      <point x="106" y="-126" type="line" smooth="yes"/>
      <point x="101" y="-162"/>
      <point x="82" y="-180"/>
      <point x="46" y="-180" type="curve" smooth="yes"/>
      <point x="-58" y="-180" type="line"/>
      <point x="-47" y="-93" type="line"/>
      <point x="15" y="-93" type="line"/>
      <point x="79" y="405" type="line"/>
      <point x="38" y="405" type="line"/>
      <point x="49" y="493" type="line"/>
      <point x="90" y="493" type="line"/>
      <point x="118" y="710" type="line" smooth="yes"/>
      <point x="123" y="746"/>
      <point x="142" y="764"/>
      <point x="178" y="764" type="curve" smooth="yes"/>
    </contour>
  </outline>
</glyph>
<glyph name="circumflex" format="2">
  <advance width="311"/>
  <unicode hex="02C6"/>
  <outline>
    <contour>
      <point x="273" y="519" type="line"/>
      <point x="218" y="519" type="line"/>
      <point x="157" y="572" type="line"/>
      <point x="95" y="519" type="line"/>
      <point x="41" y="519" type="line"/>
      <point x="41" y="522" type="line"/>
      <point x="126" y="639" type="line"/>
      <point x="188" y="639" type="line"/>
      <point x="273" y="522" type="line"/>
    </contour>
  </outline>
</glyph>
<glyph name="caron" format="2">
  <advance width="311"/>
  <unicode hex="02C7"/>
  <outline>
    <contour>
      <point x="274" y="635" type="line"/>
      <point x="188" y="519" type="line"/>
      <point x="126" y="519" type="line"/>
      <point x="40" y="635" type="line"/>
      <point x="40" y="639" type="line"/>
      <point x="95" y="639" type="line"/>
      <point x="157" y="585" type="line"/>
      <point x="220" y="639" type="line"/>
      <point x="274" y="639" type="line"/>
    </contour>
  </outline>
</glyph>
<glyph name="breve" format="2">
  <advance width="311"/>
  <unicode hex="02D8"/>
  <outline>
    <contour>
      <point x="265" y="578" type="line" smooth="yes"/>
      <point x="265" y="539"/>
      <point x="245" y="519"/>
      <point x="205" y="519" type="curve" smooth="yes"/>
      <point x="109" y="519" type="line" smooth="yes"/>
      <point x="69" y="519"/>
      <point x="49" y="539"/>
      <point x="49" y="578" type="curve" smooth="yes"/>
      <point x="49" y="633" type="line"/>
      <point x="119" y="633" type="line"/>
      <point x="119" y="582" type="line"/>
      <point x="195" y="582" type="line"/>
      <point x="195" y="633" type="line"/>
      <point x="265" y="633" type="line"/>
    </contour>
  </outline>
</glyph>
<glyph name="dotaccent" format="2">
  <advance width="311"/>
  <unicode hex="02D9"/>
  <outline>
    <contour>
      <point x="206" y="519" type="line"/>
      <point x="107" y="519" type="line"/>
      <point x="107" y="620" type="line"/>
      <point x="206" y="620" type="line"/>
    </contour>
  </outline>
</glyph>
<glyph name="ring" format="2">
  <advance width="311"/>
  <unicode hex="02DA"/>
  <outline>
    <contour>
      <point x="252" y="567" type="line" smooth="yes"/>
      <point x="252" y="535"/>
      <point x="236" y="519"/>
      <point x="203" y="519" type="curve" smooth="yes"/>
      <point x="109" y="519" type="line" smooth="yes"/>
      <point x="77" y="519"/>
      <point x="61" y="535"/>
      <point x="61" y="567" type="curve" smooth="yes"/>
      <point x="61" y="651" type="line" smooth="yes"/>
      <point x="61" y="683"/>
      <point x="77" y="699"/>
      <point x="109" y="699" type="curve" smooth="yes"/>
      <point x="203" y="699" type="line" smooth="yes"/>
      <point x="236" y="699"/>
      <point x="252" y="683"/>
      <point x="252" y="651" type="curve" smooth="yes"/>
    </contour>
    <contour>
      <point x="186" y="578" type="line"/>
      <point x="186" y="640" type="line"/>
      <point x="126" y="640" type="line"/>
      <point x="126" y="578" type="line"/>
    </contour>
  </outline>
</glyph>
<glyph name="ogonek" format="2">
  <advance width="311"/>
  <unicode hex="02DB"/>
  <outline>
    <contour>
      <point x="249" y="-171" type="line"/>
      <point x="105" y="-171" type="line" smooth="yes"/>
      <point x="74" y="-171"/>
      <point x="59" y="-156"/>
      <point x="59" y="-125" type="curve" smooth="yes"/>
      <point x="59" y="-89" type="line" smooth="yes"/>
      <point x="59" y="-64"/>
      <point x="66" y="-55"/>
      <point x="79" y="-40" type="curve" smooth="yes"/>
      <point x="125" y="10" type="line"/>
      <point x="211" y="10" type="line"/>
      <point x="211" y="5" type="line"/>
      <point x="136" y="-78" type="line"/>
      <point x="136" y="-112" type="line"/>
      <point x="249" y="-112" type="line"/>
    </contour>
  </outline>
</glyph>
<glyph name="tilde" format="2">
  <advance width="311"/>
  <unicode hex="02DC"/>
  <outline>
    <contour>
      <point x="268" y="561" type="line" smooth="yes"/>
      <point x="268" y="533"/>
      <point x="253" y="518"/>
      <point x="225" y="518" type="curve" smooth="yes"/>
      <point x="211" y="518"/>
      <point x="197" y="522"/>
      <point x="182" y="528" type="curve" smooth="yes"/>
      <point x="111" y="557" type="line"/>
      <point x="111" y="519" type="line"/>
      <point x="45" y="519" type="line"/>
      <point x="45" y="584" type="line" smooth="yes"/>
      <point x="45" y="613"/>
      <point x="60" y="628"/>
      <point x="88" y="628" type="curve" smooth="yes"/>
      <point x="102" y="628"/>
      <point x="115" y="625"/>
      <point x="132" y="618" type="curve" smooth="yes"/>
      <point x="201" y="589" type="line"/>
      <point x="201" y="627" type="line"/>
      <point x="268" y="627" type="line"/>
    </contour>
  </outline>
</glyph>
<glyph name="hungarumlaut" format="2">
  <advance width="311"/>
  <unicode hex="02DD"/>
  <outline>
    <contour>
      <point x="297" y="633" type="line"/>
      <point x="188" y="519" type="line"/>
      <point x="138" y="519" type="line"/>
      <point x="138" y="522" type="line"/>
      <point x="199" y="637" type="line"/>
      <point x="297" y="637" type="line"/>
    </contour>
    <contour>
      <point x="179" y="633" type="line"/>
      <point x="70" y="519" type="line"/>
      <point x="20" y="519" type="line"/>
      <point x="20" y="522" type="line"/>
      <point x="81" y="637" type="line"/>
      <point x="179" y="637" type="line"/>
    </contour>
  </outline>
</glyph>
<glyph name="commabelowcmb" format="2">
  <unicode hex="0326"/>
  <anchor x="0" y="0" name="_bottom"/>
  <outline>
    <contour>
      <point x="52" y="-41" type="line"/>
      <point x="5" y="-231" type="line"/>
      <point x="-61" y="-231" type="line"/>
      <point x="-54" y="-41" type="line"/>
    </contour>
  </outline>
</glyph>
<glyph name="endash" format="2">
  <advance width="376"/>
  <unicode hex="2013"/>
  <outline>
    <contour>
      <point x="351" y="244" type="line"/>
      <point x="26" y="244" type="line"/>
      <point x="26" y="340" type="line"/>
      <point x="351" y="340" type="line"/>
    </contour>
  </outline>
</glyph>
<glyph name="emdash" format="2">
  <advance width="563"/>
  <unicode hex="2014"/>
  <outline>
    <contour>
      <point x="537" y="244" type="line"/>
      <point x="26" y="244" type="line"/>
      <point x="26" y="340" type="line"/>
      <point x="537" y="340" type="line"/>
    </contour>
  </outline>
</glyph>
<glyph name="quoteleft" format="2">
  <advance width="174"/>
  <unicode hex="2018"/>
  <unicode hex="02BB"/>
  <outline>
    <contour>
      <point x="150" y="764" type="line"/>
      <point x="126" y="526" type="line"/>
      <point x="22" y="526" type="line"/>
      <point x="84" y="764" type="line"/>
    </contour>
  </outline>
</glyph>
<glyph name="quoteright" format="2">
  <advance width="174"/>
  <unicode hex="2019"/>
  <unicode hex="02BC"/>
  <outline>
    <contour>
      <point x="152" y="764" type="line"/>
      <point x="91" y="526" type="line"/>
      <point x="25" y="526" type="line"/>
      <point x="49" y="764" type="line"/>
    </contour>
  </outline>
</glyph>
<glyph name="quotesinglbase" format="2">
  <advance width="174"/>
  <unicode hex="201A"/>
  <outline>
    <contour>
      <point x="150" y="135" type="line"/>
      <point x="89" y="-102" type="line"/>
      <point x="23" y="-102" type="line"/>
      <point x="46" y="135" type="line"/>
    </contour>
  </outline>
</glyph>
<glyph name="quotedblleft" format="2">
  <advance width="320"/>
  <unicode hex="201C"/>
  <outline>
    <contour>
      <point x="295" y="764" type="line"/>
      <point x="272" y="526" type="line"/>
      <point x="167" y="526" type="line"/>
      <point x="229" y="764" type="line"/>
    </contour>
    <contour>
      <point x="150" y="764" type="line"/>
      <point x="126" y="526" type="line"/>
      <point x="22" y="526" type="line"/>
      <point x="84" y="764" type="line"/>
    </contour>
  </outline>
</glyph>
<glyph name="quotedblright" format="2">
  <advance width="320"/>
  <unicode hex="201D"/>
  <outline>
    <contour>
      <point x="298" y="764" type="line"/>
      <point x="237" y="526" type="line"/>
      <point x="171" y="526" type="line"/>
      <point x="194" y="764" type="line"/>
    </contour>
    <contour>
      <point x="152" y="764" type="line"/>
      <point x="91" y="526" type="line"/>
      <point x="25" y="526" type="line"/>
      <point x="49" y="764" type="line"/>
    </contour>
  </outline>
</glyph>
<glyph name="quotedblbase" format="2">
  <advance width="320"/>
  <unicode hex="201E"/>
  <outline>
    <contour>
      <point x="298" y="136" type="line"/>
      <point x="237" y="-102" type="line"/>
      <point x="171" y="-102" type="line"/>
      <point x="194" y="136" type="line"/>
    </contour>
    <contour>
      <point x="152" y="136" type="line"/>
      <point x="91" y="-102" type="line"/>
      <point x="25" y="-102" type="line"/>
      <point x="49" y="136" type="line"/>
    </contour>
  </outline>
</glyph>
<glyph name="dagger" format="2">
  <advance width="379"/>
  <unicode hex="2020"/>
  <outline>
    <contour>
      <point x="356" y="484" type="line"/>
      <point x="237" y="484" type="line"/>
      <point x="237" y="0" type="line"/>
      <point x="142" y="0" type="line"/>
      <point x="142" y="484" type="line"/>
      <point x="23" y="484" type="line"/>
      <point x="23" y="574" type="line"/>
      <point x="142" y="574" type="line"/>
      <point x="142" y="764" type="line"/>
      <point x="237" y="764" type="line"/>
      <point x="237" y="574" type="line"/>
      <point x="356" y="574" type="line"/>
    </contour>
  </outline>
</glyph>
<glyph name="daggerdbl" format="2">
  <advance width="379"/>
  <unicode hex="2021"/>
  <outline>
    <contour>
      <point x="356" y="194" type="line"/>
      <point x="237" y="194" type="line"/>
      <point x="237" y="0" type="line"/>
      <point x="143" y="0" type="line"/>
      <point x="143" y="194" type="line"/>
      <point x="23" y="194" type="line"/>
      <point x="23" y="284" type="line"/>
      <point x="143" y="284" type="line"/>
      <point x="143" y="488" type="line"/>
      <point x="23" y="488" type="line"/>
      <point x="23" y="579" type="line"/>
      <point x="143" y="579" type="line"/>
      <point x="143" y="764" type="line"/>
      <point x="237" y="764" type="line"/>
      <point x="237" y="579" type="line"/>
      <point x="356" y="579" type="line"/>
      <point x="356" y="488" type="line"/>
      <point x="237" y="488" type="line"/>
      <point x="237" y="284" type="line"/>
      <point x="356" y="284" type="line"/>
    </contour>
  </outline>
</glyph>
<glyph name="bullet" format="2">
  <advance width="380"/>
  <unicode hex="2022"/>
  <outline>
    <contour>
      <point x="346" y="285" type="line" smooth="yes"/>
      <point x="346" y="238"/>
      <point x="325" y="216"/>
      <point x="278" y="216" type="curve" smooth="yes"/>
      <point x="102" y="216" type="line" smooth="yes"/>
      <point x="55" y="216"/>
      <point x="33" y="238"/>
      <point x="33" y="285" type="curve" smooth="yes"/>
      <point x="33" y="489" type="line" smooth="yes"/>
      <point x="33" y="536"/>
      <point x="55" y="557"/>
      <point x="102" y="557" type="curve" smooth="yes"/>
      <point x="278" y="557" type="line" smooth="yes"/>
      <point x="325" y="557"/>
      <point x="346" y="536"/>
      <point x="346" y="489" type="curve" smooth="yes"/>
    </contour>
  </outline>
</glyph>
<glyph name="ellipsis" format="2">
  <advance width="454"/>
  <unicode hex="2026"/>
  <outline>
    <contour>
      <point x="427" y="0" type="line"/>
      <point x="328" y="0" type="line"/>
      <point x="328" y="108" type="line"/>
      <point x="427" y="108" type="line"/>
    </contour>
    <contour>
      <point x="276" y="0" type="line"/>
      <point x="177" y="0" type="line"/>
      <point x="177" y="108" type="line"/>
      <point x="276" y="108" type="line"/>
    </contour>
    <contour>
      <point x="125" y="0" type="line"/>
      <point x="26" y="0" type="line"/>
      <point x="26" y="108" type="line"/>
      <point x="125" y="108" type="line"/>
    </contour>
  </outline>
</glyph>
<glyph name="perthousand" format="2">
  <advance width="739"/>
  <unicode hex="2030"/>
  <outline>
    <contour>
      <point x="477" y="53" type="line" smooth="yes"/>
      <point x="477" y="17"/>
      <point x="460" y="0"/>
      <point x="425" y="0" type="curve" smooth="yes"/>
      <point x="321" y="0" type="line" smooth="yes"/>
      <point x="286" y="0"/>
      <point x="269" y="17"/>
      <point x="269" y="53" type="curve" smooth="yes"/>
      <point x="269" y="337" type="line"/>
      <point x="127" y="0" type="line"/>
      <point x="53" y="0" type="line"/>
      <point x="53" y="7" type="line"/>
      <point x="217" y="396" type="line"/>
      <point x="208" y="387"/>
      <point x="195" y="383"/>
      <point x="178" y="383" type="curve" smooth="yes"/>
      <point x="75" y="383" type="line" smooth="yes"/>
      <point x="40" y="383"/>
      <point x="23" y="400"/>
      <point x="23" y="435" type="curve" smooth="yes"/>
      <point x="23" y="711" type="line" smooth="yes"/>
      <point x="23" y="747"/>
      <point x="40" y="764"/>
      <point x="75" y="764" type="curve" smooth="yes"/>
      <point x="178" y="764" type="line" smooth="yes"/>
      <point x="213" y="764"/>
      <point x="230" y="747"/>
      <point x="230" y="711" type="curve" smooth="yes"/>
      <point x="230" y="427" type="line"/>
      <point x="372" y="764" type="line"/>
      <point x="446" y="764" type="line"/>
      <point x="446" y="757" type="line"/>
      <point x="282" y="368" type="line"/>
      <point x="291" y="377"/>
      <point x="304" y="381"/>
      <point x="321" y="381" type="curve" smooth="yes"/>
      <point x="425" y="381" type="line" smooth="yes"/>
      <point x="460" y="381"/>
      <point x="477" y="363"/>
      <point x="477" y="327" type="curve" smooth="yes"/>
    </contour>
    <contour>
      <point x="716" y="53" type="line" smooth="yes"/>
      <point x="716" y="17"/>
      <point x="700" y="0"/>
      <point x="664" y="0" type="curve" smooth="yes"/>
      <point x="561" y="0" type="line" smooth="yes"/>
      <point x="525" y="0"/>
      <point x="508" y="17"/>
      <point x="508" y="53" type="curve" smooth="yes"/>
      <point x="508" y="329" type="line" smooth="yes"/>
      <point x="508" y="364"/>
      <point x="525" y="381"/>
      <point x="561" y="381" type="curve" smooth="yes"/>
      <point x="664" y="381" type="line" smooth="yes"/>
      <point x="700" y="381"/>
      <point x="716" y="364"/>
      <point x="716" y="329" type="curve" smooth="yes"/>
    </contour>
    <contour>
      <point x="155" y="448" type="line"/>
      <point x="155" y="699" type="line"/>
      <point x="97" y="699" type="line"/>
      <point x="97" y="448" type="line"/>
    </contour>
    <contour>
      <point x="641" y="65" type="line"/>
      <point x="641" y="316" type="line"/>
      <point x="583" y="316" type="line"/>
      <point x="583" y="65" type="line"/>
    </contour>
    <contour>
      <point x="402" y="65" type="line"/>
      <point x="402" y="316" type="line"/>
      <point x="344" y="316" type="line"/>
      <point x="344" y="65" type="line"/>
    </contour>
  </outline>
</glyph>
<glyph name="guilsinglright" format="2">
  <advance width="265"/>
  <unicode hex="203A"/>
  <outline>
    <contour>
      <point x="243" y="264" type="line"/>
      <point x="137" y="76" type="line"/>
      <point x="29" y="76" type="line"/>
      <point x="29" y="80" type="line"/>
      <point x="136" y="271" type="line"/>
      <point x="29" y="462" type="line"/>
      <point x="29" y="466" type="line"/>
      <point x="137" y="466" type="line"/>
      <point x="243" y="278" type="line"/>
    </contour>
  </outline>
</glyph>
<glyph name="fraction" format="2">
  <advance width="349"/>
  <unicode hex="2044"/>
  <unicode hex="2215"/>
  <outline>
    <contour>
      <point x="336" y="757" type="line"/>
      <point x="104" y="0" type="line"/>
      <point x="14" y="0" type="line"/>
      <point x="14" y="7" type="line"/>
      <point x="246" y="764" type="line"/>
      <point x="336" y="764" type="line"/>
    </contour>
  </outline>
</glyph>
<glyph name="Euro" format="2">
  <advance width="359"/>
  <unicode hex="20AC"/>
  <outline>
    <contour>
      <point x="143" y="400" type="line"/>
      <point x="143" y="376" type="line"/>
      <point x="261" y="376" type="line"/>
      <point x="261" y="302" type="line"/>
      <point x="143" y="302" type="line"/>
      <point x="143" y="88" type="line"/>
      <point x="232" y="88" type="line"/>
      <point x="232" y="245" type="line"/>
      <point x="330" y="245" type="line"/>
      <point x="330" y="65" type="line" smooth="yes"/>
      <point x="330" y="21"/>
      <point x="309" y="0"/>
      <point x="265" y="0" type="curve" smooth="yes"/>
      <point x="109" y="0" type="line" smooth="yes"/>
      <point x="66" y="0"/>
      <point x="46" y="21"/>
      <point x="46" y="65" type="curve" smooth="yes"/>
      <point x="46" y="302" type="line"/>
      <point x="8" y="302" type="line"/>
      <point x="8" y="376" type="line"/>
      <point x="46" y="376" type="line"/>
      <point x="46" y="400" type="line"/>
      <point x="8" y="400" type="line"/>
      <point x="8" y="473" type="line"/>
      <point x="46" y="473" type="line"/>
      <point x="46" y="699" type="line" smooth="yes"/>
      <point x="46" y="743"/>
      <point x="66" y="764"/>
      <point x="109" y="764" type="curve" smooth="yes"/>
      <point x="265" y="764" type="line" smooth="yes"/>
      <point x="309" y="764"/>
      <point x="330" y="743"/>
      <point x="330" y="699" type="curve" smooth="yes"/>
      <point x="330" y="529" type="line"/>
      <point x="232" y="529" type="line"/>
      <point x="232" y="676" type="line"/>
      <point x="143" y="676" type="line"/>
      <point x="143" y="473" type="line"/>
      <point x="261" y="473" type="line"/>
      <point x="261" y="400" type="line"/>
    </contour>
  </outline>
</glyph>
<glyph name="uni2117" format="2">
  <advance width="482"/>
  <unicode hex="2117"/>
  <outline>
    <contour>
      <point x="452" y="44" type="line" smooth="yes"/>
      <point x="452" y="15"/>
      <point x="437" y="0"/>
      <point x="407" y="0" type="curve" smooth="yes"/>
      <point x="75" y="0" type="line" smooth="yes"/>
      <point x="45" y="0"/>
      <point x="30" y="15"/>
      <point x="30" y="44" type="curve" smooth="yes"/>
      <point x="30" y="720" type="line" smooth="yes"/>
      <point x="30" y="749"/>
      <point x="45" y="764"/>
      <point x="75" y="764" type="curve" smooth="yes"/>
      <point x="407" y="764" type="line" smooth="yes"/>
      <point x="437" y="764"/>
      <point x="452" y="749"/>
      <point x="452" y="720" type="curve" smooth="yes"/>
    </contour>
    <contour>
      <point x="405" y="47" type="line"/>
      <point x="405" y="717" type="line"/>
      <point x="78" y="717" type="line"/>
      <point x="78" y="47" type="line"/>
    </contour>
    <contour>
      <point x="334" y="376" type="line" smooth="yes"/>
      <point x="334" y="346"/>
      <point x="319" y="330"/>
      <point x="289" y="330" type="curve" smooth="yes"/>
      <point x="217" y="330" type="line"/>
      <point x="217" y="168" type="line"/>
      <point x="146" y="168" type="line"/>
      <point x="146" y="598" type="line"/>
      <point x="289" y="598" type="line" smooth="yes"/>
      <point x="319" y="598"/>
      <point x="334" y="581"/>
      <point x="334" y="552" type="curve" smooth="yes"/>
    </contour>
    <contour>
      <point x="264" y="391" type="line"/>
      <point x="264" y="536" type="line"/>
      <point x="217" y="536" type="line"/>
      <point x="217" y="391" type="line"/>
    </contour>
  </outline>
</glyph>
<glyph name="trademark" format="2">
  <advance width="465"/>
  <unicode hex="2122"/>
  <outline>
    <contour>
      <point x="441" y="324" type="line"/>
      <point x="379" y="324" type="line"/>
      <point x="379" y="574" type="line"/>
      <point x="347" y="368" type="line"/>
      <point x="308" y="368" type="line"/>
      <point x="276" y="574" type="line"/>
      <point x="276" y="324" type="line"/>
      <point x="214" y="324" type="line"/>
      <point x="214" y="764" type="line"/>
      <point x="284" y="764" type="line"/>
      <point x="328" y="537" type="line"/>
      <point x="371" y="764" type="line"/>
      <point x="441" y="764" type="line"/>
    </contour>
    <contour>
      <point x="188" y="703" type="line"/>
      <point x="135" y="703" type="line"/>
      <point x="135" y="324" type="line"/>
      <point x="72" y="324" type="line"/>
      <point x="72" y="703" type="line"/>
      <point x="19" y="703" type="line"/>
      <point x="19" y="764" type="line"/>
      <point x="188" y="764" type="line"/>
    </contour>
  </outline>
</glyph>
<glyph name="radical" format="2">
  <advance width="405"/>
  <unicode hex="221A"/>
  <outline>
    <contour>
      <point x="400" y="764" type="line"/>
      <point x="218" y="-1" type="line"/>
      <point x="117" y="-1" type="line"/>
      <point x="5" y="260" type="line"/>
      <point x="5" y="264" type="line"/>
      <point x="113" y="264" type="line"/>
      <point x="159" y="120" type="line"/>
      <point x="295" y="764" type="line"/>
    </contour>
  </outline>
</glyph>
<glyph name="apple" format="2">
  <advance width="345"/>
  <unicode hex="F8FF"/>
  <outline>
    <contour>
      <point x="316" y="58" type="line" smooth="yes"/>
      <point x="316" y="19"/>
      <point x="296" y="0"/>
      <point x="256" y="0" type="curve" smooth="yes"/>
      <point x="89" y="0" type="line" smooth="yes"/>
      <point x="49" y="0"/>
      <point x="30" y="19"/>
      <point x="30" y="58" type="curve" smooth="yes"/>
      <point x="30" y="706" type="line" smooth="yes"/>
      <point x="30" y="745"/>
      <point x="49" y="764"/>
      <point x="89" y="764" type="curve" smooth="yes"/>
      <point x="256" y="764" type="line" smooth="yes"/>
      <point x="296" y="764"/>
      <point x="316" y="745"/>
      <point x="316" y="706" type="curve" smooth="yes"/>
    </contour>
    <contour>
      <point x="232" y="582" type="line"/>
      <point x="232" y="683" type="line"/>
      <point x="113" y="683" type="line"/>
      <point x="113" y="582" type="line"/>
    </contour>
    <contour>
      <point x="232" y="415" type="line"/>
      <point x="232" y="516" type="line"/>
      <point x="113" y="516" type="line"/>
      <point x="113" y="415" type="line"/>
    </contour>
    <contour>
      <point x="232" y="248" type="line"/>
      <point x="232" y="349" type="line"/>
      <point x="113" y="349" type="line"/>
      <point x="113" y="248" type="line"/>
    </contour>
    <contour>
      <point x="232" y="81" type="line"/>
      <point x="232" y="182" type="line"/>
      <point x="113" y="182" type="line"/>
      <point x="113" y="81" type="line"/>
    </contour>
  </outline>
</glyph>
<glyph name="f_f" format="2">
  <advance width="367"/>
  <unicode hex="FB00"/>
  <outline>
    <contour>
      <point x="370" y="675" type="line"/>
      <point x="313" y="675" type="line"/>
      <point x="313" y="493" type="line"/>
      <point x="360" y="493" type="line"/>
      <point x="360" y="405" type="line"/>
      <point x="313" y="405" type="line"/>
      <point x="313" y="0" type="line"/>
      <point x="218" y="0" type="line"/>
      <point x="218" y="405" type="line"/>
      <point x="139" y="405" type="line"/>
      <point x="139" y="0" type="line"/>
      <point x="44" y="0" type="line"/>
      <point x="44" y="405" type="line"/>
      <point x="9" y="405" type="line"/>
      <point x="9" y="493" type="line"/>
      <point x="44" y="493" type="line"/>
      <point x="44" y="710" type="line" smooth="yes"/>
      <point x="44" y="746"/>
      <point x="62" y="764"/>
      <point x="98" y="764" type="curve" smooth="yes"/>
      <point x="195" y="764" type="line"/>
      <point x="195" y="675" type="line"/>
      <point x="139" y="675" type="line"/>
      <point x="139" y="493" type="line"/>
      <point x="218" y="493" type="line"/>
      <point x="218" y="710" type="line" smooth="yes"/>
      <point x="218" y="746"/>
      <point x="236" y="764"/>
      <point x="272" y="764" type="curve" smooth="yes"/>
      <point x="370" y="764" type="line"/>
    </contour>
  </outline>
</glyph>
<glyph name="fi" format="2">
  <advance width="336"/>
  <unicode hex="FB01"/>
  <outline>
    <contour>
      <point x="307" y="0" type="line"/>
      <point x="211" y="0" type="line"/>
      <point x="211" y="406" type="line"/>
      <point x="139" y="406" type="line"/>
      <point x="139" y="0" type="line"/>
      <point x="44" y="0" type="line"/>
      <point x="44" y="406" type="line"/>
      <point x="9" y="406" type="line"/>
      <point x="9" y="493" type="line"/>
      <point x="44" y="493" type="line"/>
      <point x="44" y="710" type="line" smooth="yes"/>
      <point x="44" y="746"/>
      <point x="62" y="764"/>
      <point x="98" y="764" type="curve" smooth="yes"/>
      <point x="253" y="764" type="line" smooth="yes"/>
      <point x="289" y="764"/>
      <point x="307" y="746"/>
      <point x="307" y="710" type="curve" smooth="yes"/>
      <point x="307" y="553" type="line"/>
      <point x="211" y="553" type="line"/>
      <point x="211" y="676" type="line"/>
      <point x="139" y="676" type="line"/>
      <point x="139" y="493" type="line"/>
      <point x="307" y="493" type="line"/>
    </contour>
  </outline>
</glyph>
<glyph name="fl" format="2">
  <advance width="336"/>
  <unicode hex="FB02"/>
  <outline>
    <contour>
      <point x="307" y="0" type="line"/>
      <point x="211" y="0" type="line"/>
      <point x="211" y="676" type="line"/>
      <point x="139" y="676" type="line"/>
      <point x="139" y="493" type="line"/>
      <point x="182" y="493" type="line"/>
      <point x="182" y="406" type="line"/>
      <point x="139" y="406" type="line"/>
      <point x="139" y="0" type="line"/>
      <point x="44" y="0" type="line"/>
      <point x="44" y="406" type="line"/>
      <point x="9" y="406" type="line"/>
      <point x="9" y="493" type="line"/>
      <point x="44" y="493" type="line"/>
      <point x="44" y="710" type="line" smooth="yes"/>
      <point x="44" y="746"/>
      <point x="62" y="764"/>
      <point x="98" y="764" type="curve" smooth="yes"/>
      <point x="307" y="764" type="line"/>
    </contour>
  </outline>
</glyph>
<glyph name="f_f_l" format="2">
  <advance width="510"/>
  <unicode hex="FB04"/>
  <outline>
    <contour>
      <point x="481" y="0" type="line"/>
      <point x="386" y="0" type="line"/>
      <point x="386" y="676" type="line"/>
      <point x="313" y="676" type="line"/>
      <point x="313" y="493" type="line"/>
      <point x="356" y="493" type="line"/>
      <point x="356" y="406" type="line"/>
      <point x="313" y="406" type="line"/>
      <point x="313" y="0" type="line"/>
      <point x="218" y="0" type="line"/>
      <point x="218" y="406" type="line"/>
      <point x="139" y="406" type="line"/>
      <point x="139" y="0" type="line"/>
      <point x="44" y="0" type="line"/>
      <point x="44" y="406" type="line"/>
      <point x="9" y="406" type="line"/>
      <point x="9" y="493" type="line"/>
      <point x="44" y="493" type="line"/>
      <point x="44" y="710" type="line" smooth="yes"/>
      <point x="44" y="746"/>
      <point x="62" y="764"/>
      <point x="98" y="764" type="curve" smooth="yes"/>
      <point x="195" y="764" type="line"/>
      <point x="195" y="676" type="line"/>
      <point x="139" y="676" type="line"/>
      <point x="139" y="493" type="line"/>
      <point x="218" y="493" type="line"/>
      <point x="218" y="710" type="line" smooth="yes"/>
      <point x="218" y="746"/>
      <point x="236" y="764"/>
      <point x="272" y="764" type="curve" smooth="yes"/>
      <point x="481" y="764" type="line"/>
    </contour>
  </outline>
</glyph>
<glyph name="A.salt" format="2">
  <advance width="347"/>
  <anchor x="173.5" y="764" name="top"/>
  <anchor x="347" y="0" name="ogonek"/>
  <outline>
    <contour>
      <point x="317" y="0" type="line"/>
      <point x="219" y="0" type="line"/>
      <point x="219" y="318" type="line"/>
      <point x="128" y="318" type="line"/>
      <point x="128" y="0" type="line"/>
      <point x="31" y="0" type="line"/>
      <point x="31" y="699" type="line" smooth="yes"/>
      <point x="31" y="743"/>
      <point x="51" y="764"/>
      <point x="95" y="764" type="curve" smooth="yes"/>
      <point x="252" y="764" type="line" smooth="yes"/>
      <point x="296" y="764"/>
      <point x="317" y="743"/>
      <point x="317" y="699" type="curve" smooth="yes"/>
    </contour>
    <contour>
      <point x="219" y="406" type="line"/>
      <point x="219" y="676" type="line"/>
      <point x="128" y="676" type="line"/>
      <point x="128" y="406" type="line"/>
    </contour>
  </outline>
</glyph>
<glyph name="Aogonek" format="2">
  <advance width="400"/>
  <outline>
    <contour>
      <point x="259" y="-40" type="curve" smooth="yes"/>
      <point x="305" y="4" type="line"/>
      <point x="369" y="2" type="line"/>
      <point x="369" y="0" type="line"/>
      <point x="296" y="-73" type="line"/>
      <point x="296" y="-134" type="line"/>
      <point x="413" y="-134" type="line"/>
      <point x="413" y="-180" type="line"/>
      <point x="280" y="-180" type="line" smooth="yes"/>
      <point x="254" y="-180"/>
      <point x="241" y="-167" name="inserted"/>
      <point x="241" y="-141" type="curve" smooth="yes"/>
      <point x="241" y="-84" type="line" smooth="yes"/>
      <point x="241" y="-63"/>
      <point x="246" y="-53"/>
    </contour>
    <component base="A"/>
  </outline>
</glyph>
<glyph name="M.salt" format="2">
  <advance width="487"/>
  <outline>
    <contour>
      <point x="457" y="0" type="line"/>
      <point x="362" y="0" type="line"/>
      <point x="362" y="593" type="line"/>
      <point x="289" y="490" type="line"/>
      <point x="289" y="0" type="line"/>
      <point x="198" y="0" type="line"/>
      <point x="198" y="490" type="line"/>
      <point x="126" y="593" type="line"/>
      <point x="126" y="0" type="line"/>
      <point x="31" y="0" type="line"/>
      <point x="31" y="764" type="line"/>
      <point x="122" y="764" type="line"/>
      <point x="243" y="587" type="line"/>
      <point x="244" y="587" type="line"/>
      <point x="366" y="764" type="line"/>
      <point x="457" y="764" type="line"/>
    </contour>
  </outline>
</glyph>
<glyph name="Y.salt" format="2">
  <advance width="350"/>
  <anchor x="175.0" y="764" name="top"/>
  <outline>
    <contour>
      <point x="320" y="354" type="line" smooth="yes"/>
      <point x="320" y="310"/>
      <point x="298" y="289"/>
      <point x="262" y="289" type="curve" smooth="yes"/>
      <point x="224" y="289" type="line"/>
      <point x="224" y="0" type="line"/>
      <point x="125" y="0" type="line"/>
      <point x="125" y="289" type="line"/>
      <point x="87" y="289" type="line" smooth="yes"/>
      <point x="52" y="289"/>
      <point x="31" y="310"/>
      <point x="31" y="354" type="curve" smooth="yes"/>
      <point x="31" y="764" type="line"/>
      <point x="129" y="764" type="line"/>
      <point x="129" y="378" type="line"/>
      <point x="220" y="378" type="line"/>
      <point x="220" y="764" type="line"/>
      <point x="320" y="764" type="line"/>
    </contour>
  </outline>
</glyph>
<glyph name="ampersand.salt" format="2">
  <advance width="398"/>
  <outline>
    <contour>
      <point x="387" y="0" type="line"/>
      <point x="293" y="0" type="line"/>
      <point x="259" y="91" type="line"/>
      <point x="240" y="35" type="line" smooth="yes"/>
      <point x="231" y="10"/>
      <point x="217" y="0"/>
      <point x="186" y="0" type="curve" smooth="yes"/>
      <point x="94" y="0" type="line" smooth="yes"/>
      <point x="50" y="0"/>
      <point x="30" y="20"/>
      <point x="30" y="65" type="curve" smooth="yes"/>
      <point x="30" y="279" type="line" smooth="yes"/>
      <point x="30" y="310"/>
      <point x="34" y="319"/>
      <point x="53" y="341" type="curve" smooth="yes"/>
      <point x="121" y="423" type="line"/>
      <point x="73" y="549" type="line" smooth="yes"/>
      <point x="65" y="569"/>
      <point x="60" y="583"/>
      <point x="60" y="608" type="curve" smooth="yes"/>
      <point x="60" y="699" type="line" smooth="yes"/>
      <point x="60" y="743"/>
      <point x="81" y="764"/>
      <point x="125" y="764" type="curve" smooth="yes"/>
      <point x="255" y="764" type="line" smooth="yes"/>
      <point x="299" y="764"/>
      <point x="320" y="743"/>
      <point x="320" y="699" type="curve" smooth="yes"/>
      <point x="320" y="589" type="line"/>
      <point x="225" y="589" type="line"/>
      <point x="225" y="677" type="line"/>
      <point x="154" y="677" type="line"/>
      <point x="154" y="582" type="line"/>
      <point x="256" y="326" type="line"/>
      <point x="286" y="410" type="line"/>
      <point x="378" y="410" type="line"/>
      <point x="303" y="210" type="line"/>
    </contour>
    <contour>
      <point x="212" y="203" type="line"/>
      <point x="161" y="327" type="line"/>
      <point x="124" y="278" type="line"/>
      <point x="124" y="87" type="line"/>
      <point x="173" y="87" type="line"/>
    </contour>
  </outline>
</glyph>
<glyph name="caroncmb.vert" format="2">
  <anchor x="-23.0" y="540.0" name="_caron.vert"/>
  <outline>
    <contour>
      <point x="63" y="764" type="line"/>
      <point x="6" y="534" type="line"/>
      <point x="-60" y="534" type="line"/>
      <point x="-43" y="764" type="line"/>
    </contour>
  </outline>
</glyph>
<glyph name="nbspace" format="2">
  <advance width="76"/>
  <outline>
    <contour>
      <point x="2" y="0" type="move"/>
    </contour>
  </outline>
</glyph>
